<?xml version="1.0" encoding="UTF-8"?>
<svg version="1.1" xmlns="http://www.w3.org/2000/svg" width="262" height="239">
<path d="M0 0 C86.46 0 172.92 0 262 0 C262 78.87 262 157.74 262 239 C175.54 239 89.08 239 0 239 C0 160.13 0 81.26 0 0 Z " fill="#0C182D" transform="translate(0,0)"/>
<path d="M0 0 C-0.14824219 1.17046875 -0.29648438 2.3409375 -0.44921875 3.546875 C-0.78457065 6.22264253 -1.0989524 8.8974297 -1.39453125 11.578125 C-2.34086199 19.89168474 -3.74133501 28.00141456 -5.46362305 36.18847656 C-6.96924188 43.48326637 -8.04116582 50.80767164 -8.96069336 58.19799805 C-9.06905518 59.02984619 -9.17741699 59.86169434 -9.2890625 60.71875 C-9.37881348 61.45029297 -9.46856445 62.18183594 -9.56103516 62.93554688 C-10.04321882 65.20325826 -10.88401123 66.97673574 -12 69 C-13.7115882 67.86896808 -15.39387872 66.69351178 -17.0625 65.5 C-18.00222656 64.8503125 -18.94195312 64.200625 -19.91015625 63.53125 C-22 61 -22 61 -21.90625 57.26171875 C-21.62599331 55.83667912 -21.32297132 54.41597008 -21 53 C-20.74402317 51.55941658 -20.49274058 50.11799138 -20.24609375 48.67578125 C-19.84238216 46.47998405 -19.43239868 44.28552233 -19.01757812 42.09179688 C-18.33241661 38.34872237 -17.82723276 34.808391 -18 31 C-18.76570313 31.94746094 -18.76570313 31.94746094 -19.546875 32.9140625 C-23.9584183 38.34245089 -28.4336523 43.7016979 -33 49 C-37.30281797 53.99294352 -41.51165656 59.04866684 -45.6640625 64.16796875 C-48.35196715 67.42671603 -51.11036931 70.61892041 -53.875 73.8125 C-58.46194201 79.11697289 -62.83471004 84.55352718 -67.13183594 90.09423828 C-70.2881405 94.14563139 -73.59765148 98.00524798 -77.05078125 101.80859375 C-80.0059196 105.13090359 -82.78077766 108.59472771 -85.58203125 112.046875 C-88.18689072 115.22825425 -90.83661475 118.36766656 -93.5 121.5 C-97.74087144 126.49069596 -101.91516102 131.53080366 -106.05078125 136.609375 C-108.34602523 139.42438365 -110.66739759 142.21592616 -113 145 C-116.59721356 143.5045292 -118.63097221 141.47293692 -121.1875 138.5625 C-121.97769531 137.66402344 -122.76789063 136.76554688 -123.58203125 135.83984375 C-126.6470306 132.24007876 -129.61529847 128.56756774 -132.58203125 124.88671875 C-135.76452075 121.08726844 -139.12430625 117.46753314 -142.54638672 113.88330078 C-146 110.21205917 -146 110.21205917 -146 108 C-150.94853303 110.51161393 -154.19996673 114.14051181 -157.875 118.1875 C-158.50067871 118.86731934 -159.12635742 119.54713867 -159.77099609 120.24755859 C-163.2935628 124.08659512 -166.76609832 127.96414475 -170.1640625 131.9140625 C-172.72491935 134.82363177 -175.36413544 137.65844078 -178 140.5 C-181.78012371 144.57619581 -185.50760372 148.68207559 -189.140625 152.890625 C-192.1232964 156.27432785 -195.19568448 159.57650223 -198.26977539 162.87719727 C-200.39628523 165.17591248 -202.25778871 167.38668306 -204 170 C-204.66 170 -205.32 170 -206 170 C-206 170.66 -206 171.32 -206 172 C-193.67185014 173.14233089 -193.67185014 173.14233089 -182.13769531 169.88623047 C-179.07988937 167.00167994 -177.06784822 163.47055408 -175.05224609 159.81396484 C-173.3323238 156.8489944 -171.19476815 154.23793194 -169.0625 151.5625 C-168.23665314 150.49213963 -167.41245039 149.42050884 -166.58984375 148.34765625 C-162.10114592 142.53294895 -157.55498248 136.76285324 -153 131 C-152.27554688 130.0409375 -151.55109375 129.081875 -150.8046875 128.09375 C-150.20914063 127.4028125 -149.61359375 126.711875 -149 126 C-148.34 126 -147.68 126 -147 126 C-145.62787699 127.53195272 -144.3284554 129.12921081 -143.0625 130.75 C-139.67924107 134.9858619 -136.19888943 139.03843299 -132.5 143 C-126.7908591 149.13800125 -121.20015285 155.44593633 -116.375 162.3125 C-115.92125 162.869375 -115.4675 163.42625 -115 164 C-114.34 164 -113.68 164 -113 164 C-111.64617851 162.51261765 -110.36860114 160.95569449 -109.125 159.375 C-105.49871468 154.83922833 -101.79731913 150.39340291 -98 146 C-93.6964157 141.00773418 -89.48832105 135.95130556 -85.3359375 130.83203125 C-82.6480305 127.57328113 -79.88954946 124.38115255 -77.125 121.1875 C-73.11939182 116.55316344 -69.25225517 111.84157582 -65.5 107 C-61.27233921 101.54500313 -56.87149392 96.27447338 -52.35522461 91.05664062 C-48.45931313 86.55316841 -44.66906485 81.97753528 -40.9140625 77.35546875 C-38.63380496 74.5493559 -36.32208587 71.77152185 -34 69 C-33.67 69.66 -33.34 70.32 -33 71 C-33.94042969 73.24316406 -33.94042969 73.24316406 -35.421875 76.015625 C-35.95296875 77.01980469 -36.4840625 78.02398437 -37.03125 79.05859375 C-37.5984375 80.11175781 -38.165625 81.16492188 -38.75 82.25 C-40.37058633 85.29806542 -41.99036661 88.3465441 -43.60742188 91.39648438 C-44.69955845 93.43830494 -45.82090983 95.46450314 -46.953125 97.484375 C-48.1700291 100.40857739 -47.979842 101.08145127 -47 104 C-46.291436 105.42775989 -45.5309699 106.8303587 -44.734375 108.2109375 C-44.02800903 109.44215332 -44.02800903 109.44215332 -43.30737305 110.69824219 C-42.79343994 111.58157227 -42.27950684 112.46490234 -41.75 113.375 C-40.94526245 114.76960449 -40.94526245 114.76960449 -40.12426758 116.19238281 C-30.39638494 133.00907358 -20.41880099 149.677541 -10.41015625 166.328125 C-9.84312988 167.27365234 -9.27610352 168.21917969 -8.69189453 169.19335938 C-7.545151 171.09566292 -6.38957986 172.99266782 -5.22607422 174.88476562 C-4.67580566 175.78388672 -4.12553711 176.68300781 -3.55859375 177.609375 C-3.06544678 178.40827148 -2.5722998 179.20716797 -2.06420898 180.03027344 C-1 182 -1 182 -1 184 C-47.77727385 188.20100394 -47.77727385 188.20100394 -56.77392578 181.80419922 C-62.10516112 176.19191028 -64.61825957 169.50640785 -66.90087891 162.20703125 C-68.51659001 157.49268627 -71.04463271 153.60959896 -73.8125 149.5 C-74.59055709 148.24002356 -75.36798107 146.97965574 -76.14453125 145.71875 C-77.71940369 142.93751523 -77.71940369 142.93751523 -80 142 C-80.21140625 142.52078125 -80.4228125 143.0415625 -80.640625 143.578125 C-82.57474309 147.02396758 -85.14294027 149.79564803 -87.75 152.75 C-91.48301115 157.03784383 -95.09206693 161.32971703 -98.4375 165.9296875 C-103.21151326 172.25525507 -108.30372887 178.48747955 -114 184 C-119.36810787 178.14965076 -124.53011432 172.18504404 -129.52734375 166.015625 C-132.43287573 162.47206941 -135.39454161 158.9805776 -138.375 155.5 C-139.14324097 154.60039551 -139.14324097 154.60039551 -139.92700195 153.68261719 C-142.20498726 151.02931425 -144.50636065 148.45084962 -147 146 C-150.1424763 147.35370156 -151.84816723 148.71934656 -153.8828125 151.45703125 C-154.40560791 152.15143311 -154.92840332 152.84583496 -155.46704102 153.5612793 C-156.01416748 154.30418213 -156.56129395 155.04708496 -157.125 155.8125 C-158.28226165 157.3569885 -159.43981696 158.901257 -160.59765625 160.4453125 C-161.17016113 161.21391602 -161.74266602 161.98251953 -162.33251953 162.77441406 C-164.70521414 165.94124921 -167.13267247 169.06443236 -169.5625 172.1875 C-172.86889782 176.42072445 -172.86889782 176.42072445 -175.36987305 181.14038086 C-178.43338965 184.47120514 -179.07659039 184.45329554 -183.41113281 184.68115234 C-185.67535246 184.68020296 -187.93971082 184.64633423 -190.203125 184.5859375 C-191.39605164 184.57744781 -192.58897827 184.56895813 -193.8180542 184.56021118 C-197.62961999 184.5266144 -201.43907324 184.45131453 -205.25 184.375 C-207.83330279 184.34490892 -210.41663873 184.31753164 -213 184.29296875 C-219.33405456 184.22680197 -225.66687639 184.12638734 -232 184 C-230.37825822 180.58820981 -228.50978823 178.16051142 -225.9375 175.375 C-225.13441406 174.4984375 -224.33132812 173.621875 -223.50390625 172.71875 C-222.26447266 171.37296875 -222.26447266 171.37296875 -221 170 C-219.45581367 168.29394389 -217.91407431 166.58566921 -216.375 164.875 C-215.62347656 164.04097656 -214.87195313 163.20695313 -214.09765625 162.34765625 C-212.31499982 160.35254169 -210.55900518 158.33914636 -208.8125 156.3125 C-204.70839182 151.59325617 -200.40225802 147.06245027 -196.12548828 142.50048828 C-192.55239036 138.68261833 -189.03640038 134.83148672 -185.62109375 130.87109375 C-180.43540546 124.88568486 -175.06202862 119.0653173 -169.6875 113.25 C-164.98509152 108.15349287 -160.45169471 102.92428072 -155.97143555 97.63183594 C-153.73307391 94.99239814 -151.51192879 92.3846351 -149 90 C-145.0316279 91.5632981 -142.58425131 94.3211764 -139.8125 97.4375 C-139.32982666 97.97173584 -138.84715332 98.50597168 -138.34985352 99.05639648 C-134.51324366 103.33775742 -130.88193604 107.77129502 -127.2734375 112.24609375 C-120.9411616 120.64100488 -120.9411616 120.64100488 -113 127 C-112.75121094 126.43023437 -112.50242187 125.86046875 -112.24609375 125.2734375 C-110.8103822 122.65405155 -109.11292544 120.79778356 -107.0625 118.625 C-103.32592851 114.55855462 -99.87102678 110.36674352 -96.5 106 C-92.56567952 100.91327084 -88.45861719 96.08603907 -84.10546875 91.34765625 C-81.31574754 88.23703947 -78.74626172 84.97550194 -76.16015625 81.6953125 C-73.68182934 78.60300586 -71.13095176 75.57996632 -68.5625 72.5625 C-65.16798015 68.57315422 -61.80623599 64.56329897 -58.5 60.5 C-54.75508811 55.89910825 -50.93678629 51.36648367 -47.09472656 46.84692383 C-44.10644373 43.32546842 -41.16422283 39.77080461 -38.25 36.1875 C-34.59892814 31.70095765 -30.84814858 27.31834037 -27 23 C-30.56888205 23.6266251 -33.78267737 24.57735858 -37.16015625 25.8828125 C-38.11857422 26.24503906 -39.07699219 26.60726562 -40.06445312 26.98046875 C-42.06917112 27.7457878 -44.07177764 28.51665998 -46.07226562 29.29296875 C-47.02939453 29.65261719 -47.98652344 30.01226562 -48.97265625 30.3828125 C-49.84156494 30.71684082 -50.71047363 31.05086914 -51.60571289 31.39501953 C-54.23201825 32.0586256 -55.49716361 31.96681416 -58 31 C-60.140625 29.37109375 -60.140625 29.37109375 -62.25 27.4375 C-62.95640625 26.79683594 -63.6628125 26.15617187 -64.390625 25.49609375 C-64.92171875 25.00238281 -65.4528125 24.50867188 -66 24 C-62.70819365 21.21108038 -59.45182838 19.91711326 -55.390625 18.51171875 C-54.7510939 18.2878952 -54.11156281 18.06407166 -53.45265198 17.83346558 C-51.38723444 17.11184437 -49.31866618 16.39974803 -47.25 15.6875 C-45.12396939 14.94688821 -42.99885675 14.20368851 -40.87385559 13.46012878 C-39.48185218 12.97306892 -38.08959113 12.48674476 -36.69706726 12.00117493 C-31.70757323 10.25872493 -26.74891526 8.44941191 -21.8125 6.5625 C-4.50271739 0 -4.50271739 0 0 0 Z " fill="#6AC3BD" transform="translate(240,24)"/>
<path d="M0 0 C3.62457999 3.27780924 6.05971728 7.03938338 8.5625 11.1875 C11.33606126 15.73783263 14.13842686 20.24697553 17.1328125 24.65625 C17.64255615 25.41397705 18.1522998 26.1717041 18.67749023 26.95239258 C19.6679687 28.41849287 20.66976518 29.87702354 21.68383789 31.3269043 C24.96981211 36.23136986 24.96981211 36.23136986 25.1015625 39.5859375 C23.58211216 42.91579675 21.49465794 45.629837 19.1875 48.4375 C18.70555176 49.03860596 18.22360352 49.63971191 17.72705078 50.2590332 C13.54494092 55.4359559 9.2098938 60.48667191 4.79760742 65.46850586 C2.6034746 67.97268318 1.06465733 69.806028 0 73 C-1.44801063 74.2176453 -2.90041538 75.43096557 -4.38671875 76.6015625 C-6.01887926 78.01636507 -7.24903767 79.47791411 -8.5625 81.1875 C-11.07633444 84.0880782 -12.48540319 84.76608997 -16 86 C-17.82494959 84.11492027 -19.63444398 82.21833245 -21.4375 80.3125 C-21.95376953 79.78205078 -22.47003906 79.25160156 -23.00195312 78.70507812 C-25.93358689 75.5818343 -27.68621092 73.33672604 -28 69 C-28.9075 68.979375 -29.815 68.95875 -30.75 68.9375 C-34 68 -34 68 -35.21875 66.41015625 C-36.18205344 64.62585556 -37.09317229 62.81365542 -38 61 C-38.66 60.67 -39.32 60.34 -40 60 C-38.41981003 55.3308511 -35.87680943 51.67516897 -33.0625 47.6875 C-32.06107901 46.25008283 -31.05978023 44.81258052 -30.05859375 43.375 C-29.54796387 42.64539063 -29.03733398 41.91578125 -28.51123047 41.1640625 C-26.19762787 37.85101347 -23.91152337 34.5192672 -21.625 31.1875 C-21.18293213 30.54482178 -20.74086426 29.90214355 -20.28540039 29.23999023 C-17.69118977 25.46806249 -15.10457296 21.69104434 -12.5234375 17.91015625 C-11.93739746 17.05204346 -11.35135742 16.19393066 -10.74755859 15.30981445 C-9.6064519 13.63832749 -8.46611755 11.96631291 -7.32666016 10.29370117 C-6.8063623 9.53162354 -6.28606445 8.7695459 -5.75 7.984375 C-5.29109375 7.31116211 -4.8321875 6.63794922 -4.359375 5.94433594 C-2.94971078 3.92807052 -1.48666372 1.95999122 0 0 Z " fill="#387785" transform="translate(140,44)"/>
<path d="M0 0 C12.87 0 25.74 0 39 0 C29.98448276 12.02068966 29.98448276 12.02068966 24.74609375 17.25 C21.46401374 20.53674869 18.29115185 23.91450179 15.125 27.3125 C14.50004639 27.9825708 13.87509277 28.6526416 13.23120117 29.34301758 C9.67328757 33.16878613 6.17118025 37.02918364 2.76171875 40.98828125 C-0.04037983 44.18801688 -2.93166851 47.3060334 -5.81103516 50.43603516 C-9.48744032 54.43442448 -13.12885377 58.46274502 -16.75390625 62.5078125 C-18.31508716 64.24004454 -19.88615558 65.96339576 -21.46484375 67.6796875 C-26.56078937 73.22319691 -31.4194598 78.8772477 -36.08984375 84.78515625 C-38 87 -38 87 -41 89 C-38.52326967 80.76217954 -34.9290549 73.12660196 -31.25 65.375 C-30.64796939 64.09787681 -30.04640449 62.82053398 -29.4453125 61.54296875 C-28.24331713 58.98924707 -27.03808862 56.43708567 -25.83105469 53.88574219 C-24.57146091 51.21919316 -23.3231887 48.54770266 -22.08300781 45.87207031 C-21.77039001 45.19826324 -21.45777222 44.52445618 -21.13568115 43.83023071 C-20.27075118 41.96377713 -19.40777388 40.09641903 -18.54492188 38.22900391 C-16.88810118 34.76612297 -15.09460935 31.42750877 -13.140625 28.125 C-11.90389946 25.82096337 -10.89643186 23.45148104 -9.88330078 21.04248047 C-8.13487434 16.99954637 -6.20795683 13.03802488 -4.3125 9.0625 C-2.889375 6.071875 -1.46625 3.08125 0 0 Z " fill="#54B0D7" transform="translate(52,95)"/>
<path d="M0 0 C3.62457999 3.27780924 6.05971728 7.03938338 8.5625 11.1875 C11.33606126 15.73783263 14.13842686 20.24697553 17.1328125 24.65625 C17.64255615 25.41397705 18.1522998 26.1717041 18.67749023 26.95239258 C19.6679687 28.41849287 20.66976518 29.87702354 21.68383789 31.3269043 C25.01189581 36.2941817 25.01189581 36.2941817 24.953125 39.78125 C23.47416523 43.22407439 21.59075033 45.28287161 19 48 C18.34 48 17.68 48 17 48 C15.73486328 46.35107422 15.73486328 46.35107422 14.3203125 44.0546875 C13.54494141 42.80945313 13.54494141 42.80945313 12.75390625 41.5390625 C12.21636719 40.65992188 11.67882812 39.78078125 11.125 38.875 C10.06573075 37.1636745 9.00584797 35.45272859 7.9453125 33.7421875 C7.44290039 32.92588867 6.94048828 32.10958984 6.42285156 31.26855469 C5.19674518 29.313685 3.92735212 27.40668546 2.6171875 25.5078125 C1 23 1 23 1 21 C0.34 21 -0.32 21 -1 21 C-1.25958496 21.71462402 -1.51916992 22.42924805 -1.78662109 23.16552734 C-3.06739156 26.15742777 -4.60393655 28.64858797 -6.4140625 31.3515625 C-7.09339844 32.36863281 -7.77273437 33.38570312 -8.47265625 34.43359375 C-9.18292969 35.48675781 -9.89320313 36.53992188 -10.625 37.625 C-11.31207031 38.65496094 -11.99914062 39.68492188 -12.70703125 40.74609375 C-16.77761023 46.81759523 -20.96652924 52.78216052 -25.30029297 58.66870117 C-27.28770176 61.39460846 -29.16450505 64.17027861 -31 67 C-34.81684226 65.44499019 -37.19195732 62.96404505 -40 60 C-38.41981003 55.3308511 -35.87680943 51.67516897 -33.0625 47.6875 C-32.06107901 46.25008283 -31.05978023 44.81258052 -30.05859375 43.375 C-29.54796387 42.64539063 -29.03733398 41.91578125 -28.51123047 41.1640625 C-26.19762787 37.85101347 -23.91152337 34.5192672 -21.625 31.1875 C-21.18293213 30.54482178 -20.74086426 29.90214355 -20.28540039 29.23999023 C-17.69118977 25.46806249 -15.10457296 21.69104434 -12.5234375 17.91015625 C-11.93739746 17.05204346 -11.35135742 16.19393066 -10.74755859 15.30981445 C-9.6064519 13.63832749 -8.46611755 11.96631291 -7.32666016 10.29370117 C-6.8063623 9.53162354 -6.28606445 8.7695459 -5.75 7.984375 C-5.29109375 7.31116211 -4.8321875 6.63794922 -4.359375 5.94433594 C-2.94971078 3.92807052 -1.48666372 1.95999122 0 0 Z " fill="#80DDA6" transform="translate(140,44)"/>
<path d="M0 0 C3.82524236 1.450954 5.19090966 3.38181932 7 7 C7 7.66 7 8.32 7 9 C7.66 9 8.32 9 9 9 C10.53710938 11.22460938 10.53710938 11.22460938 12.34375 14.34375 C13.00890625 15.48134766 13.6740625 16.61894531 14.359375 17.79101562 C15.07303711 19.02727423 15.78657657 20.26360365 16.5 21.5 C17.94442029 23.98121477 19.39376638 26.45953318 20.84375 28.9375 C21.20090088 29.54928101 21.55805176 30.16106201 21.92602539 30.79138184 C25.22523996 36.42567598 28.67681908 41.95561356 32.25585938 47.41601562 C35 51.68308246 35 51.68308246 35 55 C26.79246144 56.50809896 18.0146817 57.86743018 10 55 C3.7899267 49.41093403 0.43339166 41.46569572 -2.77099609 33.88427734 C-5.07867756 28.46851476 -7.78826589 23.69872153 -11.20703125 18.9296875 C-12 17 -12 17 -11.35546875 15.0078125 C-9.38083508 12.08285081 -7.04366417 9.5897374 -4.65625 7 C-3.05772403 5.06970449 -2.05233578 3.26057315 -1 1 C-0.67 0.67 -0.34 0.34 0 0 Z " fill="#285A70" transform="translate(183,141)"/>
<path d="M0 0 C-0.22236328 1.75570313 -0.22236328 1.75570313 -0.44921875 3.546875 C-0.78457065 6.22264253 -1.0989524 8.8974297 -1.39453125 11.578125 C-2.34086199 19.89168474 -3.74133501 28.00141456 -5.46362305 36.18847656 C-6.96924188 43.48326637 -8.04116582 50.80767164 -8.96069336 58.19799805 C-9.12323608 59.44577026 -9.12323608 59.44577026 -9.2890625 60.71875 C-9.37881348 61.45029297 -9.46856445 62.18183594 -9.56103516 62.93554688 C-10.04321882 65.20325826 -10.88401123 66.97673574 -12 69 C-13.7115882 67.86896808 -15.39387872 66.69351178 -17.0625 65.5 C-18.00222656 64.8503125 -18.94195312 64.200625 -19.91015625 63.53125 C-22 61 -22 61 -21.90625 57.26171875 C-21.62599331 55.83667912 -21.32297132 54.41597008 -21 53 C-20.74402317 51.55941658 -20.49274058 50.11799138 -20.24609375 48.67578125 C-19.84238216 46.47998405 -19.43239868 44.28552233 -19.01757812 42.09179688 C-18.33241661 38.34872237 -17.82723276 34.808391 -18 31 C-18.76570313 31.94746094 -18.76570313 31.94746094 -19.546875 32.9140625 C-23.9584183 38.34245089 -28.4336523 43.7016979 -33 49 C-37.30281797 53.99294352 -41.51165656 59.04866684 -45.6640625 64.16796875 C-48.84408591 68.0233483 -52.12239523 71.7909562 -55.39599609 75.56689453 C-59.62492683 80.48057373 -63.62630768 85.55286507 -67.52294922 90.73364258 C-68.63758506 92.19080765 -69.81343236 93.60078582 -71 95 C-71.66 95 -72.32 95 -73 95 C-72.1875 92.0625 -72.1875 92.0625 -71 89 C-69.515 88.505 -69.515 88.505 -68 88 C-67.5978125 86.948125 -67.5978125 86.948125 -67.1875 85.875 C-65.57326811 81.96685964 -63.07443149 78.89898839 -60 76 C-59.34 76 -58.68 76 -58 76 C-57.67 75.01 -57.34 74.02 -57 73 C-56.34 73 -55.68 73 -55 73 C-54.7525 72.46375 -54.505 71.9275 -54.25 71.375 C-52.69347463 68.4176018 -50.96564327 65.70275949 -49 63 C-48.34 63 -47.68 63 -47 63 C-45.79371992 60.66785852 -44.8345262 58.50357861 -44 56 C-43.01 56 -42.02 56 -41 56 C-40.773125 55.46375 -40.54625 54.9275 -40.3125 54.375 C-39 52 -39 52 -36.4375 49.0625 C-33.98922438 45.98646141 -33.71468108 44.67550268 -33 41 C-32.401875 40.70480469 -31.80375 40.40960938 -31.1875 40.10546875 C-28.59816455 38.79692958 -27.37579788 37.31132439 -25.5625 35.0625 C-22.96769998 31.98117498 -20.67914775 29.78382921 -17 28 C-15.45703125 29.51953125 -15.45703125 29.51953125 -14 32 C-14.05613622 34.70340198 -14.25956933 37.04506647 -14.6875 39.6875 C-14.83771606 40.75943604 -14.83771606 40.75943604 -14.9909668 41.85302734 C-15.54981136 45.68448308 -16.30208334 49.38390035 -17.3125 53.125 C-18.32005808 56.97685015 -18.32005808 56.97685015 -16.8125 60.4375 C-15.08824902 63.20042999 -15.08824902 63.20042999 -12 65 C-12.01160156 64.29875 -12.02320313 63.5975 -12.03515625 62.875 C-12.0896562 57.1447199 -11.94292701 51.65756206 -11 46 C-10.67 45.67 -10.34 45.34 -10 45 C-9.79224439 43.33795513 -9.63281745 41.66970509 -9.5 40 C-9.11111111 35.11111111 -9.11111111 35.11111111 -8 34 C-7.6300691 32.04194015 -7.31652568 30.07316617 -7.02734375 28.1015625 C-6.85009766 26.90015625 -6.67285156 25.69875 -6.49023438 24.4609375 C-6.30783203 23.19507812 -6.12542969 21.92921875 -5.9375 20.625 C-5.75123047 19.366875 -5.56496094 18.10875 -5.37304688 16.8125 C-4.3733695 10.43139743 -4.3733695 10.43139743 -4 4 C-4.9075 4.474375 -5.815 4.94875 -6.75 5.4375 C-9.3776788 6.70080711 -11.23563087 7.34553805 -14 8 C-16.21261591 8.63100528 -18.42065372 9.2781865 -20.625 9.9375 C-21.77226562 10.27652344 -22.91953125 10.61554687 -24.1015625 10.96484375 C-27.08122616 11.79583527 -27.08122616 11.79583527 -29 14 C-30.90602594 14.50158577 -32.81445364 14.99595687 -34.734375 15.44140625 C-42.85802665 17.44430657 -51.5244718 20.2622359 -59 24 C-59.33 24.99 -59.66 25.98 -60 27 C-59.01 27 -58.02 27 -57 27 C-57 27.66 -57 28.32 -57 29 C-48.03380471 26.82905114 -39.65419944 23.71103111 -31.3359375 19.72265625 C-30.56507813 19.48417969 -29.79421875 19.24570312 -29 19 C-28.01 19.66 -27.02 20.32 -26 21 C-32.78717462 23.90511641 -39.62007906 26.69719591 -46.5 29.375 C-47.18191406 29.64973145 -47.86382812 29.92446289 -48.56640625 30.20751953 C-51.16781168 31.20502663 -53.39363203 32.0311785 -56.203125 31.88671875 C-58.57142996 30.71801174 -60.3050724 29.2203503 -62.25 27.4375 C-62.95640625 26.79683594 -63.6628125 26.15617187 -64.390625 25.49609375 C-64.92171875 25.00238281 -65.4528125 24.50867188 -66 24 C-62.70819365 21.21108038 -59.45182838 19.91711326 -55.390625 18.51171875 C-54.7510939 18.2878952 -54.11156281 18.06407166 -53.45265198 17.83346558 C-51.38723444 17.11184437 -49.31866618 16.39974803 -47.25 15.6875 C-45.12396939 14.94688821 -42.99885675 14.20368851 -40.87385559 13.46012878 C-39.48185218 12.97306892 -38.08959113 12.48674476 -36.69706726 12.00117493 C-31.70757323 10.25872493 -26.74891526 8.44941191 -21.8125 6.5625 C-4.50271739 0 -4.50271739 0 0 0 Z " fill="#9AD48B" transform="translate(240,24)"/>
<path d="M0 0 C1 3 1 3 -0.078125 5.2890625 C-2.40477468 8.57096266 -4.99257855 11.45298828 -7.75 14.375 C-8.28641113 14.95080811 -8.82282227 15.52661621 -9.37548828 16.11987305 C-12.14831829 19.08322521 -14.96274427 21.98513065 -17.875 24.8125 C-20.06207598 26.95781797 -21.90043703 29.13753195 -23.6875 31.625 C-30.66808949 41.22331055 -39.45100844 49.58231582 -47.91796875 57.85546875 C-50.03681417 59.82182322 -50.03681417 59.82182322 -51 62 C-49.81059814 61.75552124 -49.81059814 61.75552124 -48.59716797 61.50610352 C-44.18179711 60.88488295 -39.8972262 60.87580635 -35.4453125 60.90234375 C-34.54376434 60.9037587 -33.64221619 60.90517365 -32.71334839 60.90663147 C-29.850531 60.9122026 -26.98779352 60.92474974 -24.125 60.9375 C-22.17708447 60.94251873 -20.2291677 60.94708099 -18.28125 60.95117188 C-13.52080282 60.96216258 -8.76041493 60.97940723 -4 61 C-4 60.34 -4 59.68 -4 59 C-2.86519236 57.86519236 -1.72571505 56.73476569 -0.56640625 55.625 C3.21689234 51.70018151 6.47390913 47.19140634 9.5859375 42.72265625 C10.05257812 42.15417969 10.51921875 41.58570313 11 41 C11.66 41 12.32 41 13 41 C13 40.34 13 39.68 13 39 C13.66 39 14.32 39 15 39 C15.185625 38.1028125 15.185625 38.1028125 15.375 37.1875 C16 35 16 35 18 32 C18.66 32 19.32 32 20 32 C20.226875 31.278125 20.45375 30.55625 20.6875 29.8125 C22.30015487 26.356811 24.01016228 24.36405773 27 22 C29.625 21.9375 29.625 21.9375 32 23 C34.44647162 25.53083271 35 26.4252927 35 30 C36.485 30.495 36.485 30.495 38 31 C38 31.66 38 32.32 38 33 C39.65 33.66 41.3 34.32 43 35 C43.495 38.465 43.495 38.465 44 42 C40.44314278 38.49441279 37.03716953 34.89446761 33.6875 31.1875 C32.80449219 30.21167969 31.92148438 29.23585937 31.01171875 28.23046875 C30.01591797 27.12638672 30.01591797 27.12638672 29 26 C25.8575237 27.35370156 24.15183277 28.71934656 22.1171875 31.45703125 C21.59439209 32.15143311 21.07159668 32.84583496 20.53295898 33.5612793 C19.98583252 34.30418213 19.43870605 35.04708496 18.875 35.8125 C17.71773835 37.3569885 16.56018304 38.901257 15.40234375 40.4453125 C14.82983887 41.21391602 14.25733398 41.98251953 13.66748047 42.77441406 C11.29478586 45.94124921 8.86732753 49.06443236 6.4375 52.1875 C3.13110218 56.42072445 3.13110218 56.42072445 0.63012695 61.14038086 C-2.43338965 64.47120514 -3.07659039 64.45329554 -7.41113281 64.68115234 C-9.67535246 64.68020296 -11.93971082 64.64633423 -14.203125 64.5859375 C-15.99251495 64.57320297 -15.99251495 64.57320297 -17.8180542 64.56021118 C-21.62961999 64.5266144 -25.43907324 64.45131453 -29.25 64.375 C-31.83330279 64.34490892 -34.41663873 64.31753164 -37 64.29296875 C-43.33405456 64.22680197 -49.66687639 64.12638734 -56 64 C-54.37825822 60.58820981 -52.50978823 58.16051142 -49.9375 55.375 C-48.73287109 54.06015625 -48.73287109 54.06015625 -47.50390625 52.71875 C-46.26447266 51.37296875 -46.26447266 51.37296875 -45 50 C-43.45581367 48.29394389 -41.91407431 46.58566921 -40.375 44.875 C-39.62347656 44.04097656 -38.87195313 43.20695312 -38.09765625 42.34765625 C-36.31499982 40.35254169 -34.55900518 38.33914636 -32.8125 36.3125 C-29.30734661 32.28198404 -25.65262633 28.39622991 -22 24.5 C-17.79220247 20.01128028 -13.6133807 15.51432184 -9.59765625 10.8515625 C-6.44290993 7.19545062 -3.21283188 3.60504772 0 0 Z " fill="#416ED4" transform="translate(64,144)"/>
<path d="M0 0 C2.125 0.375 2.125 0.375 4 1 C3.53851563 1.37769531 3.07703125 1.75539062 2.6015625 2.14453125 C-5.42534049 8.91822211 -12.15416077 16.86237473 -19.0234375 24.7734375 C-22.15930208 28.30593318 -25.38324795 31.75654092 -28.5949707 35.2199707 C-31.83977622 38.72521522 -35.01919815 42.27471469 -38.140625 45.890625 C-41.1232964 49.27432785 -44.19568448 52.57650223 -47.26977539 55.87719727 C-49.39628523 58.17591248 -51.25778871 60.38668306 -53 63 C-53.66 63 -54.32 63 -55 63 C-55 63.66 -55 64.32 -55 65 C-42.67185014 66.14233089 -42.67185014 66.14233089 -31.13769531 62.88623047 C-28.07988937 60.00167994 -26.06784822 56.47055408 -24.05224609 52.81396484 C-22.3323238 49.8489944 -20.19476815 47.23793194 -18.0625 44.5625 C-17.23665314 43.49213963 -16.41245039 42.42050884 -15.58984375 41.34765625 C-11.10114592 35.53294895 -6.55498248 29.76285324 -2 24 C-1.27554688 23.0409375 -0.55109375 22.081875 0.1953125 21.09375 C0.79085937 20.4028125 1.38640625 19.711875 2 19 C2.66 19 3.32 19 4 19 C5.2890625 20.53125 5.2890625 20.53125 6.625 22.5 C7.07101563 23.1496875 7.51703125 23.799375 7.9765625 24.46875 C8.48316406 25.22671875 8.48316406 25.22671875 9 26 C7.824375 26.04125 6.64875 26.0825 5.4375 26.125 C0.33101351 26.76783784 -2.67336246 29.18019517 -6 33 C-7.05226728 34.97300116 -8.04788888 36.97676387 -9 39 C-12.07184274 43.2835998 -15.41474484 47.33924189 -18.875 51.3125 C-21.09487965 53.72956034 -21.09487965 53.72956034 -21.5 56.125 C-22.29640046 59.11150171 -24.58088251 60.18566188 -27 62 C-27.62777344 62.86109375 -28.25554688 63.7221875 -28.90234375 64.609375 C-33.71056395 68.32013258 -38.42500932 67.53616271 -44.3125 67.3125 C-45.43462891 67.28994141 -46.55675781 67.26738281 -47.71289062 67.24414062 C-50.47662536 67.18533776 -53.23762554 67.10320401 -56 67 C-57.15722656 62.29833984 -57.15722656 62.29833984 -55.7421875 59.61328125 C-55.12601563 58.85402344 -54.50984375 58.09476563 -53.875 57.3125 C-53.27429687 56.54550781 -52.67359375 55.77851563 -52.0546875 54.98828125 C-49.8118192 52.81790109 -47.89331715 52.07141608 -45 51 C-44.64587656 49.67203709 -44.31478446 48.33783393 -44 47 C-42.3603279 45.63360658 -40.68889872 44.3050581 -39 43 C-38.0806295 41.93656859 -37.18465437 40.85248593 -36.3125 39.75 C-35.549375 38.8425 -34.78625 37.935 -34 37 C-33.34 37 -32.68 37 -32 37 C-31.67 35.68 -31.34 34.36 -31 33 C-30.34 33 -29.68 33 -29 33 C-28.7525 32.484375 -28.505 31.96875 -28.25 31.4375 C-27.8375 30.633125 -27.425 29.82875 -27 29 C-26.70867188 28.40960938 -26.41734375 27.81921875 -26.1171875 27.2109375 C-23.47362486 22.15278221 -23.47362486 22.15278221 -21.0625 21.375 C-20.381875 21.25125 -19.70125 21.1275 -19 21 C-16.53742423 18.83058801 -14.47734628 16.95469256 -13 14 C-11.5443487 11.0886974 -9.34570517 9.2366026 -7 7 C-6.113125 6.113125 -5.22625 5.22625 -4.3125 4.3125 C-2.875 2.875 -1.4375 1.4375 0 0 Z " fill="#4273D0" transform="translate(89,131)"/>
<path d="M0 0 C-0.14695312 1.16402344 -0.29390625 2.32804687 -0.4453125 3.52734375 C-0.78860815 6.26828852 -1.1155311 9.00932167 -1.4296875 11.75390625 C-4.19277108 35.38554217 -4.19277108 35.38554217 -7 41 C-7.66 41 -8.32 41 -9 41 C-9.04254356 39.00045254 -9.04080783 36.99958364 -9 35 C-8.67 34.67 -8.34 34.34 -8 34 C-7.6300691 32.04194015 -7.31652568 30.07316617 -7.02734375 28.1015625 C-6.85009766 26.90015625 -6.67285156 25.69875 -6.49023438 24.4609375 C-6.30783203 23.19507812 -6.12542969 21.92921875 -5.9375 20.625 C-5.75123047 19.366875 -5.56496094 18.10875 -5.37304688 16.8125 C-4.3733695 10.43139743 -4.3733695 10.43139743 -4 4 C-4.9075 4.474375 -5.815 4.94875 -6.75 5.4375 C-9.3776788 6.70080711 -11.23563087 7.34553805 -14 8 C-16.21261591 8.63100528 -18.42065372 9.2781865 -20.625 9.9375 C-21.77226562 10.27652344 -22.91953125 10.61554687 -24.1015625 10.96484375 C-27.08122616 11.79583527 -27.08122616 11.79583527 -29 14 C-30.90602594 14.50158577 -32.81445364 14.99595687 -34.734375 15.44140625 C-42.85802665 17.44430657 -51.5244718 20.2622359 -59 24 C-59.33 24.99 -59.66 25.98 -60 27 C-59.01 27 -58.02 27 -57 27 C-57 27.66 -57 28.32 -57 29 C-48.03380471 26.82905114 -39.65419944 23.71103111 -31.3359375 19.72265625 C-30.56507813 19.48417969 -29.79421875 19.24570312 -29 19 C-28.01 19.66 -27.02 20.32 -26 21 C-32.78717462 23.90511641 -39.62007906 26.69719591 -46.5 29.375 C-47.18191406 29.64973145 -47.86382812 29.92446289 -48.56640625 30.20751953 C-51.16781168 31.20502663 -53.39363203 32.0311785 -56.203125 31.88671875 C-58.57142996 30.71801174 -60.3050724 29.2203503 -62.25 27.4375 C-63.30960938 26.47650391 -63.30960938 26.47650391 -64.390625 25.49609375 C-64.92171875 25.00238281 -65.4528125 24.50867188 -66 24 C-62.70819365 21.21108038 -59.45182838 19.91711326 -55.390625 18.51171875 C-54.43132835 18.17598343 -54.43132835 18.17598343 -53.45265198 17.83346558 C-51.38723444 17.11184437 -49.31866618 16.39974803 -47.25 15.6875 C-45.12396939 14.94688821 -42.99885675 14.20368851 -40.87385559 13.46012878 C-39.48185218 12.97306892 -38.08959113 12.48674476 -36.69706726 12.00117493 C-31.70757323 10.25872493 -26.74891526 8.44941191 -21.8125 6.5625 C-4.50271739 0 -4.50271739 0 0 0 Z " fill="#AADD73" transform="translate(240,24)"/>
<path d="M0 0 C0.99 0.33 1.98 0.66 3 1 C2.57589844 1.4125 2.15179688 1.825 1.71484375 2.25 C-2.02890463 5.93615225 -5.5612595 9.72992413 -8.9921875 13.70703125 C-11.41072574 16.46905838 -13.88889555 19.17399427 -16.375 21.875 C-20.53131698 26.39282812 -24.65683458 30.93603556 -28.75390625 35.5078125 C-30.31508716 37.24004454 -31.88615558 38.96339576 -33.46484375 40.6796875 C-38.56078937 46.22319691 -43.4194598 51.8772477 -48.08984375 57.78515625 C-50 60 -50 60 -53 62 C-50.60564599 54.14483861 -47.30109532 46.86257862 -43.8125 39.4375 C-43.24760008 38.22611971 -42.68314371 37.01453248 -42.11914062 35.80273438 C-40.75042601 32.86643209 -39.377291 29.93228668 -38 27 C-37.67 27 -37.34 27 -37 27 C-36.57196604 33.20649237 -37.09750718 35.9149336 -41 41 C-41.33 41.99 -41.66 42.98 -42 44 C-41.05125 43.175 -40.1025 42.35 -39.125 41.5 C-36.25 39 -36.25 39 -34 39 C-33.7525 38.2575 -33.505 37.515 -33.25 36.75 C-31.89534961 33.76976913 -30.4898459 32.10080748 -28 30 C-27.34 30 -26.68 30 -26 30 C-25.835 29.319375 -25.67 28.63875 -25.5 27.9375 C-23.63682082 24.28877411 -21.2164247 22.4890537 -18.09765625 19.90234375 C-15.40937555 17.46436851 -13.39461081 14.76305273 -11.32421875 11.796875 C-10.00575013 10.00780253 -8.60464135 8.53323061 -7 7 C-6.154375 6.154375 -5.30875 5.30875 -4.4375 4.4375 C-2.95833333 2.95833333 -1.47916667 1.47916667 0 0 Z " fill="#4983C0" transform="translate(64,122)"/>
<path d="M0 0 C2.82377417 1.26326739 3.87378964 2.37612357 5.375 5.0625 C5.375 6.0525 5.375 7.0425 5.375 8.0625 C6.365 8.3925 7.355 8.7225 8.375 9.0625 C8.375 9.7225 8.375 10.3825 8.375 11.0625 C10.025 11.7225 11.675 12.3825 13.375 13.0625 C13.87 16.5275 13.87 16.5275 14.375 20.0625 C10.81814278 16.55691279 7.41216953 12.95696761 4.0625 9.25 C2.73798828 7.78626953 2.73798828 7.78626953 1.38671875 6.29296875 C0.72285156 5.55691406 0.05898437 4.82085937 -0.625 4.0625 C-3.7674763 5.41620156 -5.47316723 6.78184656 -7.5078125 9.51953125 C-8.29200562 10.56113403 -8.29200562 10.56113403 -9.09204102 11.6237793 C-9.63916748 12.36668213 -10.18629395 13.10958496 -10.75 13.875 C-11.90726165 15.4194885 -13.06481696 16.963757 -14.22265625 18.5078125 C-14.79516113 19.27641602 -15.36766602 20.04501953 -15.95751953 20.83691406 C-18.33021414 24.00374921 -20.75767247 27.12693236 -23.1875 30.25 C-26.49389782 34.48322445 -26.49389782 34.48322445 -28.99487305 39.20288086 C-32.05838965 42.53370514 -32.70159039 42.51579554 -37.03613281 42.74365234 C-39.30035246 42.74270296 -41.56471082 42.70883423 -43.828125 42.6484375 C-45.61751495 42.63570297 -45.61751495 42.63570297 -47.4430542 42.62271118 C-51.25461999 42.5891144 -55.06407324 42.51381453 -58.875 42.4375 C-61.45830279 42.40740892 -64.04163873 42.38003164 -66.625 42.35546875 C-72.95905456 42.28930197 -79.29187639 42.18888734 -85.625 42.0625 C-85.295 41.4025 -84.965 40.7425 -84.625 40.0625 C-83.36429688 40.06773682 -82.10359375 40.07297363 -80.8046875 40.07836914 C-76.100756 40.09655064 -71.39682757 40.10797987 -66.69287109 40.11743164 C-64.66194129 40.12244189 -62.63101506 40.12925191 -60.60009766 40.13793945 C-57.67088943 40.15015047 -54.74172915 40.15576153 -51.8125 40.16015625 C-50.91321777 40.16531754 -50.01393555 40.17047882 -49.08740234 40.17579651 C-43.83930933 40.17625728 -38.81875999 39.82520154 -33.625 39.0625 C-33.625 38.4025 -33.625 37.7425 -33.625 37.0625 C-32.49019236 35.92769236 -31.35071505 34.79726569 -30.19140625 33.6875 C-26.40810766 29.76268151 -23.15109087 25.25390634 -20.0390625 20.78515625 C-19.33910156 19.93244141 -19.33910156 19.93244141 -18.625 19.0625 C-17.965 19.0625 -17.305 19.0625 -16.625 19.0625 C-16.625 18.4025 -16.625 17.7425 -16.625 17.0625 C-15.965 17.0625 -15.305 17.0625 -14.625 17.0625 C-14.439375 16.1653125 -14.439375 16.1653125 -14.25 15.25 C-13.625 13.0625 -13.625 13.0625 -11.625 10.0625 C-10.965 10.0625 -10.305 10.0625 -9.625 10.0625 C-9.398125 9.340625 -9.17125 8.61875 -8.9375 7.875 C-7.01937158 3.76472481 -4.84730446 0.11541201 0 0 Z " fill="#3860B2" transform="translate(93.625,165.9375)"/>
<path d="M0 0 C0.828125 1.62890625 0.828125 1.62890625 1 4 C-0.68607818 6.17336673 -2.31359078 8.01310325 -4.25 9.9375 C-7.71519395 13.46029948 -10.51338783 16.69035839 -13 21 C-14.47265625 22.5625 -14.47265625 22.5625 -16.0625 24 C-19.99202018 27.7873886 -23.19823345 32.01407377 -26.44750977 36.38085938 C-28.78339427 39.50222534 -31.2194198 42.27514285 -34 45 C-35.35262903 46.60897405 -36.68446185 48.23556041 -38 49.875 C-41.74739967 54.49533803 -45.56499359 59.04652223 -49.4375 63.5625 C-50.21770508 64.47394775 -50.21770508 64.47394775 -51.01367188 65.40380859 C-52.95643765 67.66460948 -54.89139355 69.89139355 -57 72 C-56.70235142 65.92610876 -53.93902994 63.06409895 -50 58.8125 C-48.80348521 57.47894234 -47.60817742 56.14430076 -46.4140625 54.80859375 C-45.82786133 54.15874512 -45.24166016 53.50889648 -44.63769531 52.83935547 C-42.47501455 50.41036965 -40.41823494 47.90489635 -38.375 45.375 C-35.13270988 41.37261256 -31.83611799 37.42400042 -28.5 33.5 C-25.14547904 29.55353876 -21.82778038 25.58357765 -18.5625 21.5625 C-14.95689411 17.13387538 -11.27765788 12.774163 -7.5625 8.4375 C-7.04179932 7.82914307 -6.52109863 7.22078613 -5.98461914 6.59399414 C-4.04232813 4.33401926 -2.10794489 2.10794489 0 0 Z " fill="#78C39A" transform="translate(215,45)"/>
<path d="M0 0 C1.75668493 1.75668493 1.17259683 4.18097282 1.1875 6.5625 C1.15158951 10.91792988 0.8139455 14.68885658 -0.42578125 18.84765625 C-1.45038994 22.68819632 -1.94057558 26.63239578 -2.53515625 30.55859375 C-3 33 -3 33 -4 34 C-4.274867 35.87522048 -4.49172663 37.75900991 -4.68359375 39.64453125 C-4.80669922 40.79630859 -4.92980469 41.94808594 -5.05664062 43.13476562 C-5.30930488 45.57459536 -5.5593315 48.01469976 -5.80664062 50.45507812 C-5.93103516 51.61072266 -6.05542969 52.76636719 -6.18359375 53.95703125 C-6.34686157 55.54994995 -6.34686157 55.54994995 -6.51342773 57.17504883 C-6.97254682 59.84061178 -7.64387451 61.68164295 -9 64 C-9.33 64 -9.66 64 -10 64 C-10.41934276 52.04873139 -8.15689944 40.48897368 -5.72265625 28.84375 C-4.71884455 23.50455695 -4.10883032 18.15342444 -3.52734375 12.75390625 C-2.95973619 8.71338134 -2.05130927 4.93913806 -1 1 C-4.10457887 2.08215446 -7.20862921 3.16581634 -10.3125 4.25 C-11.22499512 4.568479 -12.13749023 4.88695801 -13.07763672 5.21508789 C-18.77502727 7.2079085 -24.45341731 9.24190337 -30.1015625 11.37109375 C-32 12 -32 12 -34 12 C-33.67 10.35 -33.34 8.7 -33 7 C-32.21625 7.061875 -31.4325 7.12375 -30.625 7.1875 C-26.27940865 6.96272803 -19.24037204 6.24037204 -16 3 C-14.33382885 2.95936168 -12.66611905 2.957279 -11 3 C-11 2.34 -11 1.68 -11 1 C-7.26835686 0.12196632 -3.83319229 -0.17423601 0 0 Z " fill="#142918" transform="translate(241,23)"/>
<path d="M0 0 C0.495 1.485 0.495 1.485 1 3 C0.46632812 3.57105469 -0.06734375 4.14210937 -0.6171875 4.73046875 C-5.49757331 10.04147684 -9.98668497 15.48790508 -14.32861328 21.23974609 C-17.42664607 25.32017027 -20.72382529 29.13743019 -24.171875 32.921875 C-26.99059063 36.12605601 -29.50941754 39.53771301 -32 43 C-35.52492319 39.51318409 -38.95288776 35.96079004 -42.3125 32.3125 C-43.19550781 31.35988281 -44.07851562 30.40726563 -44.98828125 29.42578125 C-47 27 -47 27 -47 25 C-45.125 25.1875 -45.125 25.1875 -43 26 C-42.31867549 27.66072849 -41.65257873 29.327767 -41 31 C-40.38125 31.309375 -39.7625 31.61875 -39.125 31.9375 C-36.01095821 33.4945209 -34.86861444 36.13479119 -33 39 C-32.34 39 -31.68 39 -31 39 C-30.73058594 38.43796875 -30.46117187 37.8759375 -30.18359375 37.296875 C-28.92577327 34.85595604 -27.54620739 32.56050616 -26.0625 30.25 C-25.55847656 29.45078125 -25.05445313 28.6515625 -24.53515625 27.828125 C-24.02855469 27.22484375 -23.52195313 26.6215625 -23 26 C-22.01 26 -21.02 26 -20 26 C-19.67 24.35 -19.34 22.7 -19 21 C-18.34 21 -17.68 21 -17 21 C-16.731875 20.41734375 -16.46375 19.8346875 -16.1875 19.234375 C-14.98519009 16.97213399 -13.66174087 15.19423682 -12 13.25 C-11.484375 12.63640625 -10.96875 12.0228125 -10.4375 11.390625 C-9 10 -9 10 -7 10 C-6.938125 9.21625 -6.87625 8.4325 -6.8125 7.625 C-6.544375 6.75875 -6.27625 5.8925 -6 5 C-3.5 3.875 -3.5 3.875 -1 3 C-0.67 2.01 -0.34 1.02 0 0 Z " fill="#509AC4" transform="translate(159,165)"/>
<path d="M0 0 C-0.33 0.99 -0.66 1.98 -1 3 C-3.07421875 3.84375 -3.07421875 3.84375 -5.6875 4.5 C-9.74271048 5.61547337 -13.38700837 6.77662053 -17 9 C-17.33 9.99 -17.66 10.98 -18 12 C-17.01 12 -16.02 12 -15 12 C-15 12.66 -15 13.32 -15 14 C-6.03380471 11.82905114 2.34580056 8.71103111 10.6640625 4.72265625 C11.82035156 4.36494141 11.82035156 4.36494141 13 4 C13.99 4.66 14.98 5.32 16 6 C9.21282538 8.90511641 2.37992094 11.69719591 -4.5 14.375 C-5.18191406 14.64973145 -5.86382812 14.92446289 -6.56640625 15.20751953 C-9.16781168 16.20502663 -11.39363203 17.0311785 -14.203125 16.88671875 C-16.57142996 15.71801174 -18.3050724 14.2203503 -20.25 12.4375 C-20.95640625 11.79683594 -21.6628125 11.15617187 -22.390625 10.49609375 C-22.92171875 10.00238281 -23.4528125 9.50867187 -24 9 C-20.28708805 5.70293419 -16.0537666 4.39021137 -11.4375 2.8125 C-10.66986328 2.53986328 -9.90222656 2.26722656 -9.11132812 1.98632812 C-3.40125705 0 -3.40125705 0 0 0 Z " fill="#9CD484" transform="translate(198,39)"/>
<path d="M0 0 C12.87 0 25.74 0 39 0 C28.30434783 14.26086957 28.30434783 14.26086957 21 20 C21.61277612 17.03824877 22.25372522 15.61941217 24 13 C24.66 13 25.32 13 26 13 C26.2475 12.38125 26.495 11.7625 26.75 11.125 C28 9 28 9 30 8.0625 C32.74917506 6.60200075 32.97503553 4.85068244 34 2 C29.77084783 1.97091367 25.54172148 1.95317208 21.3125 1.9375 C20.11431641 1.92912109 18.91613281 1.92074219 17.68164062 1.91210938 C16.52470703 1.90888672 15.36777344 1.90566406 14.17578125 1.90234375 C12.58117065 1.89448853 12.58117065 1.89448853 10.9543457 1.88647461 C8.1554746 1.99402564 5.69015786 2.21854026 3 3 C1.78702351 5.2806707 1.78702351 5.2806707 1 8 C-0.5 10.8125 -0.5 10.8125 -2 13 C-2.66 13 -3.32 13 -4 13 C-3.46696161 7.66961613 -2.50816459 5.01632918 0 0 Z " fill="#5FB4BE" transform="translate(52,95)"/>
<path d="M0 0 C5.01053694 4.05932369 9.33340016 8.39829094 13.5 13.3125 C14.06243408 13.96677979 14.62486816 14.62105957 15.2043457 15.29516602 C18.87875081 19.59586002 22.40169462 23.98258273 25.73046875 28.55859375 C26.14941406 29.03425781 26.56835938 29.50992188 27 30 C27.66 30 28.32 30 29 30 C30.47769218 28.36567245 31.88269319 26.66523632 33.25 24.9375 C36.75802434 20.55105276 40.32176862 16.24411313 44 12 C45 15 45 15 44.0625 17.1875 C41.64207658 20.4880774 38.89058709 23.21070742 35.9375 26.03515625 C33.943108 27.94020095 33.943108 27.94020095 32.48046875 30.23046875 C31.99191406 30.81441406 31.50335938 31.39835937 31 32 C27.3125 32.25 27.3125 32.25 24 32 C23.649375 31.175 23.29875 30.35 22.9375 29.5 C20.40278422 24.41849837 16.43146222 19.69646837 11.77734375 16.44921875 C11.19082031 15.97097656 10.60429688 15.49273437 10 15 C10 14.01 10 13.02 10 12 C9.01 12 8.02 12 7 12 C6.38125 10.63875 6.38125 10.63875 5.75 9.25 C4.10256403 6.19047606 2.46618157 4.38114082 0 2 C0 1.34 0 0.68 0 0 Z " fill="#4D8DB9" transform="translate(98,158)"/>
<path d="M0 0 C0.33 0.66 0.66 1.32 1 2 C0.07543945 4.22729492 0.07543945 4.22729492 -1.38671875 6.98046875 C-1.91330078 7.98013672 -2.43988281 8.97980469 -2.98242188 10.00976562 C-3.82643555 11.58274414 -3.82643555 11.58274414 -4.6875 13.1875 C-5.23083984 14.21681641 -5.77417969 15.24613281 -6.33398438 16.30664062 C-9.13374041 21.59130709 -11.99435168 26.82969985 -15 32 C-15.33 31.01 -15.66 30.02 -16 29 C-15.03114628 27.31503702 -14.03013277 25.64821244 -13 24 C-13 23.01 -13 22.02 -13 21 C-15.97 24.63 -18.94 28.26 -22 32 C-22.33 31.34 -22.66 30.68 -23 30 C-21.06781801 25.26412737 -18.22337437 21.61104664 -14.875 17.8125 C-13.89632963 16.68038357 -12.91847942 15.54755768 -11.94140625 14.4140625 C-11.45172363 13.84848633 -10.96204102 13.28291016 -10.45751953 12.70019531 C-6.88819288 8.53657877 -3.45576361 4.25784208 0 0 Z " fill="#81CC9B" transform="translate(206,93)"/>
<path d="M0 0 C0.33 0 0.66 0 1 0 C1.42803396 6.20649237 0.90249282 8.9149336 -3 14 C-3.33 14.99 -3.66 15.98 -4 17 C-2.35 17 -0.7 17 1 17 C-3.56507679 23.40900977 -8.66917468 29.2190161 -14 35 C-14.33 34.34 -14.66 33.68 -15 33 C-14.01638321 30.46483465 -12.96788731 28.0442978 -11.81640625 25.5859375 C-11.48205063 24.85629791 -11.14769501 24.12665833 -10.8032074 23.37490845 C-9.73032641 21.03813835 -8.64656844 18.70659801 -7.5625 16.375 C-6.83456615 14.79460241 -6.10734319 13.21387717 -5.38085938 11.6328125 C-3.59547578 7.75135401 -1.80031927 3.87455214 0 0 Z " fill="#4064AF" transform="translate(26,149)"/>
<path d="M0 0 C-0.81791016 0.89138672 -0.81791016 0.89138672 -1.65234375 1.80078125 C-10.19556241 11.19101988 -18.09603096 21.07158113 -26 31 C-26.33 29.68 -26.66 28.36 -27 27 C-26.34 27 -25.68 27 -25 27 C-24.896875 26.360625 -24.79375 25.72125 -24.6875 25.0625 C-24.460625 24.381875 -24.23375 23.70125 -24 23 C-23.01 22.67 -22.02 22.34 -21 22 C-20.67 21.01 -20.34 20.02 -20 19 C-19.34 19 -18.68 19 -18 19 C-17.938125 18.46375 -17.87625 17.9275 -17.8125 17.375 C-16.64294485 13.95630034 -14.32405204 11.73076115 -12 9 C-11.67 8.01 -11.34 7.02 -11 6 C-13.97 5.505 -13.97 5.505 -17 5 C-14.65117776 2.65117776 -12.72876333 1.96496976 -9.625 0.8125 C-8.66851562 0.44769531 -7.71203125 0.08289062 -6.7265625 -0.29296875 C-3.94714704 -1.01370542 -2.64891897 -0.98549829 0 0 Z " fill="#152F1F" transform="translate(214,47)"/>
<path d="M0 0 C0.99 0 1.98 0 3 0 C2.41445037 3.09912852 1.55563139 4.84913622 -0.5546875 7.1796875 C-1.08191406 7.77209229 -1.60914063 8.36449707 -2.15234375 8.97485352 C-2.72082031 9.60190186 -3.28929687 10.2289502 -3.875 10.875 C-9.34738124 17.03825421 -14.5244092 23.35821652 -19.5625 29.87890625 C-20.366875 30.90886719 -21.17125 31.93882813 -22 33 C-22.44601563 33.57218262 -22.89203125 34.14436523 -23.3515625 34.73388672 C-24.52108604 36.19450877 -25.75583242 37.60241311 -27 39 C-27.66 39 -28.32 39 -29 39 C-28.1875 36.0625 -28.1875 36.0625 -27 33 C-25.515 32.505 -25.515 32.505 -24 32 C-23.731875 31.29875 -23.46375 30.5975 -23.1875 29.875 C-21.57326811 25.96685964 -19.07443149 22.89898839 -16 20 C-15.34 20 -14.68 20 -14 20 C-13.67 19.01 -13.34 18.02 -13 17 C-12.34 17 -11.68 17 -11 17 C-10.7525 16.46375 -10.505 15.9275 -10.25 15.375 C-8.69347463 12.4176018 -6.96564327 9.70275949 -5 7 C-4.34 7 -3.68 7 -3 7 C-1.79371992 4.66785852 -0.8345262 2.50357861 0 0 Z " fill="#7BCBA8" transform="translate(196,80)"/>
<path d="M0 0 C1.32 0.66 2.64 1.32 4 2 C3.01 2.33 2.02 2.66 1 3 C0.67 3.99 0.34 4.98 0 6 C-1.13161618 7.18439678 -2.27150133 8.36207051 -3.453125 9.49658203 C-6.57916683 12.53480261 -9.51861967 15.75834494 -12.5 18.9375 C-13.15097656 19.62779297 -13.80195312 20.31808594 -14.47265625 21.02929688 C-18.12161791 24.91783683 -21.63405615 28.86377285 -25 33 C-25.79296875 31.3359375 -25.79296875 31.3359375 -26 29 C-24.11328125 26.4765625 -24.11328125 26.4765625 -21.3125 23.625 C-20.29587269 22.5686191 -19.28164217 21.50992757 -18.26953125 20.44921875 C-17.73537598 19.89282715 -17.2012207 19.33643555 -16.65087891 18.76318359 C-13.82674282 15.7469294 -11.16785526 12.59173245 -8.5 9.4375 C-2.62485003 2.49183398 -2.62485003 2.49183398 0 0 Z " fill="#54A6C3" transform="translate(91,114)"/>
<path d="M0 0 C2.82377417 1.26326739 3.87378964 2.37612357 5.375 5.0625 C5.375 6.0525 5.375 7.0425 5.375 8.0625 C6.365 8.3925 7.355 8.7225 8.375 9.0625 C8.375 9.7225 8.375 10.3825 8.375 11.0625 C10.025 11.7225 11.675 12.3825 13.375 13.0625 C13.705 15.3725 14.035 17.6825 14.375 20.0625 C10.81814278 16.55691279 7.41216953 12.95696761 4.0625 9.25 C3.17949219 8.27417969 2.29648438 7.29835937 1.38671875 6.29296875 C0.39091797 5.18888672 0.39091797 5.18888672 -0.625 4.0625 C-4.99972526 5.59874073 -7.13480705 9.02037945 -9.75 12.625 C-14.38513514 18.94256757 -14.38513514 18.94256757 -16.625 20.0625 C-16.625 19.0725 -16.625 18.0825 -16.625 17.0625 C-15.965 17.0625 -15.305 17.0625 -14.625 17.0625 C-14.50125 16.464375 -14.3775 15.86625 -14.25 15.25 C-13.625 13.0625 -13.625 13.0625 -11.625 10.0625 C-10.965 10.0625 -10.305 10.0625 -9.625 10.0625 C-9.398125 9.340625 -9.17125 8.61875 -8.9375 7.875 C-7.01937158 3.76472481 -4.84730446 0.11541201 0 0 Z " fill="#4B8EC4" transform="translate(93.625,165.9375)"/>
<path d="M0 0 C0.828125 1.62890625 0.828125 1.62890625 1 4 C-0.68607818 6.17336673 -2.31359078 8.01310325 -4.25 9.9375 C-7.71621425 13.46133674 -10.50805944 16.69312007 -13 21 C-14.6484375 22.80859375 -14.6484375 22.80859375 -16.375 24.4375 C-19.500714 27.46366897 -22.2730629 30.61198724 -25 34 C-25.33 33.34 -25.66 32.68 -26 32 C-20.13483742 20.59658554 -9.07155775 9.07155775 0 0 Z " fill="#9DE38E" transform="translate(215,45)"/>
<path d="M0 0 C2.0625 1.6875 2.0625 1.6875 4 4 C3.875 6.6875 3.875 6.6875 3 9 C2.01 9.495 2.01 9.495 1 10 C0.67 7.69 0.34 5.38 0 3 C-0.51046875 3.63164063 -1.0209375 4.26328125 -1.546875 4.9140625 C-6.11629596 10.53671879 -10.74306667 16.10640751 -15.4375 21.625 C-15.95731445 22.24068848 -16.47712891 22.85637695 -17.01269531 23.49072266 C-20.76636366 27.88318183 -20.76636366 27.88318183 -23 29 C-22.41414706 25.65331507 -21.33695126 23.99495167 -19 21.5625 C-16.39135131 18.6818595 -15.65914217 16.844996 -15 13 C-14.40445313 12.70609375 -13.80890625 12.4121875 -13.1953125 12.109375 C-10.60050745 10.7981212 -9.33528198 9.30237824 -7.5 7.0625 C-5.20138336 4.26759113 -2.97005419 2.07773528 0 0 Z " fill="#9EE082" transform="translate(222,52)"/>
<path d="M0 0 C0.99 0.33 1.98 0.66 3 1 C2.32195313 1.73863281 1.64390625 2.47726563 0.9453125 3.23828125 C-11.51621312 16.73183571 -11.51621312 16.73183571 -23.625 30.5390625 C-25 32 -25 32 -27 33 C-26.72777707 29.09813806 -26.27669035 27.32155906 -23.6875 24.3125 C-17.51351351 19 -17.51351351 19 -15 19 C-15 18.34 -15 17.68 -15 17 C-14.34 17 -13.68 17 -13 17 C-12.938125 16.443125 -12.87625 15.88625 -12.8125 15.3125 C-11.6519231 12.00931958 -9.59786554 10.28105267 -7 8 C-6.34 8 -5.68 8 -5 8 C-4.67 6.35 -4.34 4.7 -4 3 C-3.34 3 -2.68 3 -2 3 C-2 2.34 -2 1.68 -2 1 C-1.34 0.67 -0.68 0.34 0 0 Z " fill="#0A1C4B" transform="translate(41,166)"/>
<path d="M0 0 C0.33 0 0.66 0 1 0 C0.29454873 6.94385367 -0.77211643 13.74617621 -2.0703125 20.6015625 C-3.1336133 26.347365 -3.1336133 26.347365 -2 32 C-0.4137474 33.61044965 -0.4137474 33.61044965 1.5625 34.75 C2.71815192 35.4847807 3.86694829 36.23082652 5 37 C5 37.33 5 37.66 5 38 C2.6875 38.25 2.6875 38.25 0 38 C-1.625 36.125 -1.625 36.125 -3 34 C-3.99 33.34 -4.98 32.68 -6 32 C-5.68875002 29.62483024 -5.37603597 27.24986818 -5.0625 24.875 C-4.93198242 23.87726563 -4.93198242 23.87726563 -4.79882812 22.859375 C-4.27369442 18.89169812 -3.68185986 14.94373002 -3 11 C-4.65 11 -6.3 11 -8 11 C-5.50505292 7.16847413 -2.97337987 3.48603157 0 0 Z M-5 8 C-5 8.66 -5 9.32 -5 10 C-4.34 9.67 -3.68 9.34 -3 9 C-3.66 8.67 -4.32 8.34 -5 8 Z " fill="#112718" transform="translate(222,54)"/>
<path d="M0 0 C2.125 0.375 2.125 0.375 4 1 C3.53851563 1.37769531 3.07703125 1.75539062 2.6015625 2.14453125 C-5.61579233 9.07893938 -12.49352505 17.24180662 -19.52734375 25.33984375 C-21.27397947 27.3088628 -23.1014243 29.17736733 -25 31 C-25.99 30.67 -26.98 30.34 -28 30 C-27.38125 29.236875 -26.7625 28.47375 -26.125 27.6875 C-23.94402948 25.00374191 -23.94402948 25.00374191 -22 22 C-21.01 21.67 -20.02 21.34 -19 21 C-15.52495546 17.87580927 -15.52495546 17.87580927 -13 14 C-11.5443487 11.0886974 -9.34570517 9.2366026 -7 7 C-6.113125 6.113125 -5.22625 5.22625 -4.3125 4.3125 C-2.875 2.875 -1.4375 1.4375 0 0 Z " fill="#4D8EC8" transform="translate(89,131)"/>
<path d="M0 0 C1 3 1 3 -0.0703125 5.27734375 C-2.44027989 8.62120462 -5.07647385 11.57488424 -7.875 14.5625 C-8.39191406 15.12646484 -8.90882812 15.69042969 -9.44140625 16.27148438 C-12.43095546 19.49070928 -15.4808177 22.34438088 -19 25 C-18.5887992 20.11028617 -16.16831648 17.54982344 -12.875 14.1875 C-11.87558342 13.13479641 -10.87688677 12.08140886 -9.87890625 11.02734375 C-9.38922363 10.5154248 -8.89954102 10.00350586 -8.39501953 9.47607422 C-5.49553509 6.40812131 -2.75517027 3.19712591 0 0 Z " fill="#498CC2" transform="translate(64,144)"/>
<path d="M0 0 C1 3 1 3 0.0625 5.1875 C-0.288125 5.785625 -0.63875 6.38375 -1 7 C1.1249266 7.16759984 3.24994376 7.33405201 5.375 7.5 C7.15003906 7.63921875 7.15003906 7.63921875 8.9609375 7.78125 C10.63786843 7.90195454 12.31873056 8 14 8 C13.67 8.99 13.34 9.98 13 11 C5.74 11 -1.52 11 -9 11 C-9 10.34 -9 9.68 -9 9 C-8.34 9 -7.68 9 -7 9 C-6.6596875 8.1646875 -6.6596875 8.1646875 -6.3125 7.3125 C-4.64103234 4.36753316 -2.44723648 2.31843456 0 0 Z " fill="#0D2356" transform="translate(43,185)"/>
<path d="M0 0 C0.8125 1.6875 0.8125 1.6875 1 4 C-0.64058983 6.53438108 -1.42898475 7.56248693 -4 9 C-8.24658997 9.70935518 -12.4434922 9.5807096 -16.73828125 9.48828125 C-17.97418503 9.48120651 -19.21008881 9.47413177 -20.48344421 9.46684265 C-23.75711542 9.44362714 -27.0295416 9.39876777 -30.30279541 9.34332275 C-33.64771049 9.29202193 -36.99267996 9.26973285 -40.33789062 9.24414062 C-46.89241237 9.18904144 -53.4461044 9.10538961 -60 9 C-59.67 8.01 -59.34 7.02 -59 6 C-59 6.66 -59 7.32 -59 8 C-41.18 8 -23.36 8 -5 8 C-4.34 6.35 -3.68 4.7 -3 3 C-1.375 1.1875 -1.375 1.1875 0 0 Z " fill="#0B2053" transform="translate(67,200)"/>
<path d="M0 0 C1.875 0.1875 1.875 0.1875 4 1 C4.68132451 2.66072849 5.34742127 4.327767 6 6 C6.928125 6.4640625 6.928125 6.4640625 7.875 6.9375 C10.98904179 8.4945209 12.13138556 11.13479119 14 14 C14.66 14 15.32 14 16 14 C16.268125 13.4225 16.53625 12.845 16.8125 12.25 C18.01719859 9.9674132 19.40798115 8.0262058 21 6 C21.99 6.33 22.98 6.66 24 7 C21.03 10.63 18.06 14.26 15 18 C11.48488525 14.48488525 8.05188813 10.96597629 4.6875 7.3125 C3.80449219 6.35988281 2.92148438 5.40726563 2.01171875 4.42578125 C0 2 0 2 0 0 Z " fill="#4A88BB" transform="translate(112,190)"/>
<path d="M0 0 C0.33 0.66 0.66 1.32 1 2 C0.360625 2.61875 -0.27875 3.2375 -0.9375 3.875 C-7.59103708 10.54733238 -13.66498827 17.67119672 -19.37109375 25.1640625 C-19.90863281 25.76992187 -20.44617188 26.37578125 -21 27 C-21.66 27 -22.32 27 -23 27 C-21.74009208 22.38033763 -19.17222187 20.0888799 -15.80859375 16.9140625 C-13.40422654 14.36948381 -11.79478344 11.57341857 -10.140625 8.50390625 C-9.57601562 7.75947266 -9.57601562 7.75947266 -9 7 C-8.01 7 -7.02 7 -6 7 C-5.7525 6.21625 -5.505 5.4325 -5.25 4.625 C-3.84610901 1.67682892 -2.99324263 1.0975223 0 0 Z " fill="#162D2A" transform="translate(207,91)"/>
<path d="M0 0 C0.7265625 1.7578125 0.7265625 1.7578125 1 4 C-0.4765625 5.9296875 -0.4765625 5.9296875 -2.625 7.875 C-5.21612812 10.29007586 -7.59532984 12.62558768 -9.75 15.4375 C-12.06099341 18.06946472 -12.73675058 18.41727689 -16 19 C-16.33 19.99 -16.66 20.98 -17 22 C-17.66 21.67 -18.32 21.34 -19 21 C-16.86595734 18.62884148 -14.73188578 16.25770908 -12.59765625 13.88671875 C-10.87572564 11.97317481 -9.15436469 10.0591181 -7.43359375 8.14453125 C-6.63050781 7.25121094 -5.82742187 6.35789063 -5 5.4375 C-4.2575 4.61121094 -3.515 3.78492188 -2.75 2.93359375 C-1.85059394 1.93983036 -0.94775971 0.94775971 0 0 Z " fill="#0D224E" transform="translate(63,163)"/>
<path d="M0 0 C0.33 0.99 0.66 1.98 1 3 C-0.109375 4.8671875 -0.109375 4.8671875 -1.75 6.875 C-3.55110217 9.14090273 -5.14868577 11.25162206 -6.625 13.75 C-8.16103223 16.26350729 -9.74902868 18.10074295 -12 20 C-12.99 20 -13.98 20 -15 20 C-15.33 20.99 -15.66 21.98 -16 23 C-16.66 22.67 -17.32 22.34 -18 22 C-12 14.66666667 -6 7.33333333 0 0 Z " fill="#63BCBC" transform="translate(171,135)"/>
<path d="M0 0 C1.33333333 0.66666667 2.66666667 1.33333333 4 2 C4.721875 2.268125 5.44375 2.53625 6.1875 2.8125 C8 4 8 4 8.75 6.625 C8.87375 7.800625 8.87375 7.800625 9 9 C9.99 9 10.98 9 12 9 C12.2475 9.969375 12.495 10.93875 12.75 11.9375 C13.1625 12.948125 13.575 13.95875 14 15 C16.03243548 15.96877057 16.03243548 15.96877057 18 16 C18 17.65 18 19.3 18 21 C12.82535867 17.15218978 9.05013312 12.56579824 5.05078125 7.5234375 C3.13088224 5.05835048 3.13088224 5.05835048 1.23046875 3.2890625 C0 2 0 2 0 0 Z " fill="#59ADC0" transform="translate(95,133)"/>
<path d="M0 0 C1 2 1 2 0.5 4.125 C-1.69175366 8.32586118 -4.82354189 11.51444555 -8 15 C-9.15091804 16.32894675 -10.29717807 17.66195004 -11.4375 19 C-12.283125 19.99 -13.12875 20.98 -14 22 C-14.33 21.34 -14.66 20.68 -15 20 C-13.00461432 16.06989915 -10.31428051 12.80994614 -7.5 9.4375 C-4.92318746 6.34103026 -2.38422706 3.24774519 0 0 Z " fill="#8ACF8F" transform="translate(189,75)"/>
<path d="M0 0 C3.14822808 2.93927489 5.45457845 5.9856778 7.75 9.625 C8.36359375 10.58664063 8.9771875 11.54828125 9.609375 12.5390625 C11 15 11 15 11 17 C11.66 17.33 12.32 17.66 13 18 C10.03 21.3 7.06 24.6 4 28 C4 25 4 25 6.0625 22.1875 C8.28301427 19.17641582 8.28301427 19.17641582 7.9375 15.875 C7.00268766 13.00824215 5.89426879 11.30606636 4 9 C4 8.34 4 7.68 4 7 C3.01 6.67 2.02 6.34 1 6 C0.67 4.02 0.34 2.04 0 0 Z " fill="#59B093" transform="translate(146,75)"/>
<path d="M0 0 C0.66 0.33 1.32 0.66 2 1 C1.48614746 1.72533936 1.48614746 1.72533936 0.96191406 2.46533203 C-0.60957382 4.68462096 -2.17979504 6.90480322 -3.75 9.125 C-4.28882812 9.88554688 -4.82765625 10.64609375 -5.3828125 11.4296875 C-8.31747706 15.58116419 -11.20496953 19.75318185 -14 24 C-16.62187494 22.95125002 -17.79371361 22.35068687 -19.25 19.875 C-19.4975 19.25625 -19.745 18.6375 -20 18 C-19.34 18 -18.68 18 -18 18 C-18 18.66 -18 19.32 -18 20 C-16.68 20 -15.36 20 -14 20 C-12.40156198 18.33474162 -12.40156198 18.33474162 -11.125 16.0625 C-10.61710937 15.2478125 -10.10921875 14.433125 -9.5859375 13.59375 C-9.06257813 12.7378125 -8.53921875 11.881875 -8 11 C-6.92473589 9.34888354 -5.84173824 7.70277013 -4.75 6.0625 C-4.03070313 4.96615234 -4.03070313 4.96615234 -3.296875 3.84765625 C-2 2 -2 2 0 0 Z " fill="#64BBBD" transform="translate(123,87)"/>
<path d="M0 0 C1.2890625 1.53125 1.2890625 1.53125 2.625 3.5 C3.07101563 4.1496875 3.51703125 4.799375 3.9765625 5.46875 C4.31429687 5.9740625 4.65203125 6.479375 5 7 C3.80375 7.0825 2.6075 7.165 1.375 7.25 C-3.04377027 7.7767929 -5.51439983 9.29865987 -9 12 C-8.72731607 7.50071511 -5.14466583 0 0 0 Z " fill="#509ECD" transform="translate(93,150)"/>
<path d="M0 0 C0.33 0 0.66 0 1 0 C0.96530666 8.15293399 -1.40625444 13.35917419 -6 20 C-6.66 20.99 -7.32 21.98 -8 23 C-8.66 23 -9.32 23 -10 23 C-7.60292686 14.82175048 -3.91141228 7.53348722 0 0 Z " fill="#457BB8" transform="translate(37,126)"/>
<path d="M0 0 C0.66 0.99 1.32 1.98 2 3 C0.90073597 4.77388086 -0.20460502 6.54399684 -1.3125 8.3125 C-1.92738281 9.29863281 -2.54226562 10.28476563 -3.17578125 11.30078125 C-4.66925078 13.51060447 -5.94744335 15.31540869 -8 17 C-8.66 17 -9.32 17 -10 17 C-10.33 18.65 -10.66 20.3 -11 22 C-11.99 21.67 -12.98 21.34 -14 21 C-13.52373169 20.31224487 -13.52373169 20.31224487 -13.0378418 19.6105957 C-11.58613254 17.51232909 -10.13679992 15.41243141 -8.6875 13.3125 C-8.18798828 12.59126953 -7.68847656 11.87003906 -7.17382812 11.12695312 C-4.66029026 7.48149092 -2.21736055 3.83686621 0 0 Z " fill="#6FBEA7" transform="translate(118,75)"/>
<path d="M0 0 C0.33 0 0.66 0 1 0 C1.25786805 8.07986556 1.15897382 16.15039764 -1 24 C-1.66 24.33 -2.32 24.66 -3 25 C-3.28436965 16.89546495 -2.39445571 8.97995095 -1 1 C-0.67 0.67 -0.34 0.34 0 0 Z " fill="#182E1E" transform="translate(234,62)"/>
<path d="M0 0 C1.29315061 0.95632999 2.58446853 1.91513851 3.875 2.875 C4.59429687 3.40867188 5.31359375 3.94234375 6.0546875 4.4921875 C8 6 8 6 10 8 C12.62119061 7.72117161 12.62119061 7.72117161 15.5 7 C18.46875 6.3125 18.46875 6.3125 21 6 C21.66 6.66 22.32 7.32 23 8 C17.28264895 10.45029331 13.20970773 11.33266291 7 11 C6.67 10.01 6.34 9.02 6 8 C4.67532254 7.3162955 3.34136367 6.65035814 2 6 C0 3 0 3 0 0 Z " fill="#1C3729" transform="translate(173,47)"/>
<path d="M0 0 C0.65625 1.7890625 0.65625 1.7890625 1 4 C-1.74629764 8.85031599 -7.22770999 14.13431496 -12 17 C-12.99 16.67 -13.98 16.34 -15 16 C-14.41992188 15.43152344 -13.83984375 14.86304688 -13.2421875 14.27734375 C-8.59383097 9.68268111 -4.17366549 5.029802 0 0 Z " fill="#10294E" transform="translate(79,145)"/>
<path d="M0 0 C2.11328125 0.95703125 2.11328125 0.95703125 4 2 C3.21496094 2.32613281 2.42992187 2.65226562 1.62109375 2.98828125 C0.57050781 3.42527344 -0.48007813 3.86226562 -1.5625 4.3125 C-2.66078125 4.76625 -3.7590625 5.22 -4.890625 5.6875 C-7.23394495 6.67664008 -9.5188849 7.7182983 -11.8125 8.8125 C-15.39839943 10.14842332 -18.20364737 10.23242975 -22 10 C-19.83463141 7.83463141 -18.68326335 7.4370699 -15.8125 6.5625 C-10.94569585 5.01326009 -6.2112652 3.32675912 -1.8125 0.6875 C-0.9153125 0.3471875 -0.9153125 0.3471875 0 0 Z " fill="#A1DF81" transform="translate(210,43)"/>
<path d="M0 0 C0.33 0.99 0.66 1.98 1 3 C-0.74294474 5.3681635 -2.48379005 7.50699905 -4.4375 9.6875 C-4.96666016 10.29400391 -5.49582031 10.90050781 -6.04101562 11.52539062 C-7.35161048 13.02490005 -8.67466418 14.51350334 -10 16 C-14.81023365 14.9612309 -16.04019146 12.86419448 -19 9 C-18.67 8.34 -18.34 7.68 -18 7 C-16.35 8.98 -14.7 10.96 -13 13 C-9.0830622 11.69435407 -7.92080562 9.71750027 -5.375 6.5 C-4.57835937 5.4996875 -3.78171875 4.499375 -2.9609375 3.46875 C-1.99027344 2.24671875 -1.99027344 2.24671875 -1 1 C-0.67 0.67 -0.34 0.34 0 0 Z " fill="#17364F" transform="translate(138,155)"/>
<path d="M0 0 C-2.54805798 2.54805798 -4.85243629 3.17585846 -8.25 4.3828125 C-8.86391602 4.60194305 -9.47783203 4.82107361 -10.11035156 5.04684448 C-11.40724009 5.50839125 -12.70512103 5.96715761 -14.00390625 6.42333984 C-15.99465612 7.12312154 -17.98186002 7.83231132 -19.96875 8.54296875 C-29.71127854 12 -29.71127854 12 -32 12 C-32 11.34 -32 10.68 -32 10 C-31.03320312 9.69707031 -30.06640625 9.39414062 -29.0703125 9.08203125 C-22.98779292 7.13622008 -17.13721708 5.24171978 -11.5 2.1875 C-7.37660855 -0.0189971 -4.63451003 -0.50375109 0 0 Z " fill="#132C18" transform="translate(206,35)"/>
<path d="M0 0 C0.99 0.33 1.98 0.66 3 1 C2.57589844 1.4125 2.15179688 1.825 1.71484375 2.25 C-2.19536571 6.10005239 -5.83604428 10.06335689 -9.32421875 14.30078125 C-11.09509782 16.09642786 -12.69595442 17.01111769 -15 18 C-12.06515646 11.64349054 -6.97008677 6.83202881 -2 2 C-1.34 1.34 -0.68 0.68 0 0 Z " fill="#4F93C0" transform="translate(64,122)"/>
<path d="M0 0 C1 3 1 3 0.0625 5.1875 C-2.88701188 9.20956166 -6.41619926 12.54625655 -10 16 C-11.00223463 16.99776037 -12.0031201 17.9968896 -13 19 C-11.61691476 13.51765008 -9.04377855 10.24073635 -5.375 6.125 C-4.6015625 5.23554688 -4.6015625 5.23554688 -3.8125 4.328125 C-2.54976754 2.87832107 -1.27598684 1.43815239 0 0 Z " fill="#529EBF" transform="translate(142,170)"/>
<path d="M0 0 C0.99 0 1.98 0 3 0 C2.40674464 3.20911192 1.42413843 5.01255841 -0.72265625 7.453125 C-1.26083984 8.071875 -1.79902344 8.690625 -2.35351562 9.328125 C-2.91748047 9.96234375 -3.48144531 10.5965625 -4.0625 11.25 C-4.63033203 11.8996875 -5.19816406 12.549375 -5.78320312 13.21875 C-7.1825444 14.81799717 -8.59045241 16.40974119 -10 18 C-10.99 17.67 -11.98 17.34 -13 17 C-12.34 17 -11.68 17 -11 17 C-10.7525 16.46375 -10.505 15.9275 -10.25 15.375 C-8.69347463 12.4176018 -6.96564327 9.70275949 -5 7 C-4.34 7 -3.68 7 -3 7 C-1.79371992 4.66785852 -0.8345262 2.50357861 0 0 Z " fill="#90D996" transform="translate(196,80)"/>
<path d="M0 0 C-2.31 2.64 -4.62 5.28 -7 8 C-7.33 6.68 -7.66 5.36 -8 4 C-8.99 4.495 -8.99 4.495 -10 5 C-12.3329866 5.04022391 -14.66706666 5.04320247 -17 5 C-14.65117776 2.65117776 -12.72876333 1.96496976 -9.625 0.8125 C-8.66851562 0.44769531 -7.71203125 0.08289062 -6.7265625 -0.29296875 C-4 -1 -4 -1 0 0 Z " fill="#24421E" transform="translate(214,47)"/>
<path d="M0 0 C1.32 0.33 2.64 0.66 4 1 C3.50371094 1.4846875 3.00742187 1.969375 2.49609375 2.46875 C-2.23054696 7.132608 -6.6966545 11.94356903 -11 17 C-11.63671875 15.1640625 -11.63671875 15.1640625 -12 13 C-9.78859254 10.34631105 -7.89029742 8.42041822 -4.75 6.9375 C-2.77905978 6.1346633 -2.77905978 6.1346633 -2.25 3.875 C-2.1675 3.25625 -2.085 2.6375 -2 2 C-1.34 2 -0.68 2 0 2 C0 1.34 0 0.68 0 0 Z " fill="#497CCC" transform="translate(60,162)"/>
<path d="M0 0 C0.33 0 0.66 0 1 0 C1.42803396 6.20649237 0.90249282 8.9149336 -3 14 C-3.33 14.99 -3.66 15.98 -4 17 C-3.34 17.33 -2.68 17.66 -2 18 C-2.66 18.99 -3.32 19.98 -4 21 C-4.66 21 -5.32 21 -6 21 C-5.81045578 13.05637416 -3.62115114 7.02850737 0 0 Z " fill="#4376C6" transform="translate(26,149)"/>
<path d="M0 0 C0.33 0.66 0.66 1.32 1 2 C1.66 2.33 2.32 2.66 3 3 C2.7168444 5.08450717 2.42314331 7.16758367 2.125 9.25 C1.96257812 10.41015625 1.80015625 11.5703125 1.6328125 12.765625 C1.08179569 15.58193313 0.44203518 17.55217557 -1 20 C-2.12067256 12.88221482 -1.7958955 6.97579243 0 0 Z " fill="#97D677" transform="translate(222,60)"/>
<path d="M0 0 C0.33 0 0.66 0 1 0 C1 1.65 1 3.3 1 5 C0.01 5.33 -0.98 5.66 -2 6 C-2.23009766 6.92039062 -2.23009766 6.92039062 -2.46484375 7.859375 C-3.15980677 10.63922708 -4.35108477 11.48086782 -6.5625 13.25 C-7.20316406 13.77078125 -7.84382812 14.2915625 -8.50390625 14.828125 C-8.99761719 15.21484375 -9.49132812 15.6015625 -10 16 C-10.66 15.67 -11.32 15.34 -12 15 C-11.38511719 14.25234375 -10.77023438 13.5046875 -10.13671875 12.734375 C-8.92435547 11.25710937 -8.92435547 11.25710937 -7.6875 9.75 C-6.88699219 8.77546875 -6.08648437 7.8009375 -5.26171875 6.796875 C-3.8949179 5.10666877 -2.55510017 3.39340971 -1.26953125 1.640625 C-0.85058594 1.09921875 -0.43164062 0.5578125 0 0 Z " fill="#172F24" transform="translate(205,74)"/>
<path d="M0 0 C1.32 0.66 2.64 1.32 4 2 C3.01 2.33 2.02 2.66 1 3 C0.67 3.99 0.34 4.98 0 6 C-2.78462997 9.01041078 -5.64675101 11.64030627 -9 14 C-8.50128936 9.54326841 -6.97995638 7.42312822 -3.9375 4.1875 C-3.20402344 3.39730469 -2.47054687 2.60710937 -1.71484375 1.79296875 C-1.14894531 1.20128906 -0.58304688 0.60960938 0 0 Z " fill="#5BB0BF" transform="translate(91,114)"/>
<path d="M0 0 C1 2 1 2 0.3203125 4.35546875 C-1.14109128 7.28259998 -2.76203743 9.06387433 -5.125 11.3125 C-5.84945313 12.00988281 -6.57390625 12.70726562 -7.3203125 13.42578125 C-7.87460938 13.94527344 -8.42890625 14.46476563 -9 15 C-9.99 14.67 -10.98 14.34 -12 14 C-11.55269531 13.49210938 -11.10539063 12.98421875 -10.64453125 12.4609375 C-7.03713058 8.35357725 -3.47885075 4.21678879 0 0 Z " fill="#4069CB" transform="translate(23,189)"/>
<path d="M0 0 C-1.4520314 3.16284067 -3.22942143 5.76415308 -5.375 8.5 C-5.96023437 9.2528125 -6.54546875 10.005625 -7.1484375 10.78125 C-8.98992934 12.9879322 -10.93711934 15.0007324 -13 17 C-12.45276317 13.62537285 -11.9451 11.91765 -10 9 C-9.34 9 -8.68 9 -8 9 C-8 8.34 -8 7.68 -8 7 C-7.34 7 -6.68 7 -6 7 C-5.8453125 6.1028125 -5.8453125 6.1028125 -5.6875 5.1875 C-4.71993159 2.10887325 -3.39245825 0 0 0 Z " fill="#0D2451" transform="translate(78,166)"/>
<path d="M0 0 C1.0725 0.103125 2.145 0.20625 3.25 0.3125 C2.63125 0.56 2.0125 0.8075 1.375 1.0625 C-1.20751682 2.58162754 -1.54710858 3.6059943 -2.75 6.3125 C-4.75 9.5625 -4.75 9.5625 -6.75 12.3125 C-7.41 12.3125 -8.07 12.3125 -8.75 12.3125 C-8.2344419 5.73913418 -7.32876169 0.61073014 0 0 Z " fill="#5CB9CB" transform="translate(56.75,95.6875)"/>
<path d="M0 0 C0.66 0.99 1.32 1.98 2 3 C1.73445312 3.51949219 1.46890625 4.03898437 1.1953125 4.57421875 C-1.11412138 9.13157956 -1.11412138 9.13157956 -3 13.875 C-4.22504791 16.4782268 -5.34713128 17.02728147 -8 18 C-6.65150163 13.64029169 -4.95092154 9.68658562 -2.875 5.625 C-2.33617187 4.56539063 -1.79734375 3.50578125 -1.2421875 2.4140625 C-0.83226562 1.61742188 -0.42234375 0.82078125 0 0 Z " fill="#17322B" transform="translate(201,104)"/>
<path d="M0 0 C0.80859375 1.640625 0.80859375 1.640625 1 4 C-0.58570661 6.12217932 -2.09290258 7.8833556 -3.9375 9.75 C-4.41896484 10.25660156 -4.90042969 10.76320313 -5.39648438 11.28515625 C-6.58653954 12.53412504 -7.79186613 13.7685103 -9 15 C-9 10.41146904 -6.59417903 6.81095125 -3.62109375 3.43359375 C-2.44489729 2.25739729 -1.22617703 1.12399561 0 0 Z " fill="#AAE97E" transform="translate(215,45)"/>
<path d="M0 0 C1 3 1 3 0.14453125 4.90234375 C-2.29945636 8.6364128 -4.63590909 12.00969697 -8 15 C-8.99 14.67 -9.98 14.34 -11 14 C-7.37 9.38 -3.74 4.76 0 0 Z " fill="#4683BA" transform="translate(83,160)"/>
<path d="M0 0 C0.99 0.33 1.98 0.66 3 1 C2.57589844 1.4125 2.15179688 1.825 1.71484375 2.25 C-2.75238723 6.64850435 -6.9278528 11.23472137 -11 16 C-11.33 15.01 -11.66 14.02 -12 13 C-9.6875 9.8125 -9.6875 9.8125 -7 7 C-6.34 7 -5.68 7 -5 7 C-4.731875 6.401875 -4.46375 5.80375 -4.1875 5.1875 C-3.01506533 3.02775192 -1.80630718 1.64209744 0 0 Z " fill="#0C2347" transform="translate(63,142)"/>
<path d="M0 0 C2.0625 1.6875 2.0625 1.6875 4 4 C3.875 6.6875 3.875 6.6875 3 9 C2.01 9.495 2.01 9.495 1 10 C0.67 7.69 0.34 5.38 0 3 C-0.598125 3.825 -1.19625 4.65 -1.8125 5.5 C-2.534375 6.325 -3.25625 7.15 -4 8 C-4.99 8 -5.98 8 -7 8 C-5.50902342 4.2047869 -3.24299151 2.38957269 0 0 Z " fill="#A7E27D" transform="translate(222,52)"/>
<path d="M0 0 C0.33 0.66 0.66 1.32 1 2 C0.07421875 3.9453125 0.07421875 3.9453125 -1.3125 6.125 C-1.76238281 6.84945312 -2.21226562 7.57390625 -2.67578125 8.3203125 C-3.11277344 8.87460938 -3.54976562 9.42890625 -4 10 C-4.66 10 -5.32 10 -6 10 C-6.268125 10.598125 -6.53625 11.19625 -6.8125 11.8125 C-7.98493467 13.97224808 -9.19369282 15.35790256 -11 17 C-11.66 16.67 -12.32 16.34 -13 16 C-8.71748905 10.62295151 -4.42797123 5.25821584 0 0 Z " fill="#122E51" transform="translate(144,186)"/>
<path d="M0 0 C0.66 0 1.32 0 2 0 C3.32421875 1.6796875 3.32421875 1.6796875 4.6875 3.875 C5.37392578 4.95394531 5.37392578 4.95394531 6.07421875 6.0546875 C6.37972656 6.69664063 6.68523437 7.33859375 7 8 C6.67 8.66 6.34 9.32 6 10 C3 8 3 8 2 5 C0.68 6.32 -0.64 7.64 -2 9 C-2.99 8.67 -3.98 8.34 -5 8 C-4.21718695 6.66144944 -3.42348123 5.32926356 -2.625 4 C-2.18414062 3.2575 -1.74328125 2.515 -1.2890625 1.75 C-0.86367187 1.1725 -0.43828125 0.595 0 0 Z " fill="#5AB28D" transform="translate(139,65)"/>
<path d="M0 0 C0.734375 1.6796875 0.734375 1.6796875 1 4 C-0.546875 6.5078125 -0.546875 6.5078125 -2.75 9.125 C-3.46671875 9.99382812 -4.1834375 10.86265625 -4.921875 11.7578125 C-7 14 -7 14 -10 16 C-9.625 14.0625 -9.625 14.0625 -9 12 C-8.34 11.67 -7.68 11.34 -7 11 C-6.731875 10.278125 -6.46375 9.55625 -6.1875 8.8125 C-4.66775625 5.2131069 -2.58267163 2.92249685 0 0 Z " fill="#4476D3" transform="translate(44,166)"/>
<path d="M0 0 C0.66 0.33 1.32 0.66 2 1 C1.31164062 1.76183594 1.31164062 1.76183594 0.609375 2.5390625 C-3.59412964 7.2454493 -3.59412964 7.2454493 -7.25 12.375 C-9 15 -9 15 -12 17 C-10.56525156 12.90498884 -8.56534514 9.7396239 -6 6.25 C-5.29875 5.28578125 -4.5975 4.3215625 -3.875 3.328125 C-2 1 -2 1 0 0 Z " fill="#2F6B75" transform="translate(124,90)"/>
<path d="M0 0 C0.66 0 1.32 0 2 0 C1.88556397 2.0839403 1.75804453 4.16716493 1.625 6.25 C1.55539063 7.41015625 1.48578125 8.5703125 1.4140625 9.765625 C1.03751692 12.70694334 0.5225877 14.49949011 -1 17 C-3.36232333 13.6649553 -3.03670794 10.91055721 -2.42578125 6.97265625 C-1.89403086 4.50904207 -1.0685802 2.27963776 0 0 Z " fill="#9BD97E" transform="translate(231,65)"/>
<path d="M0 0 C0.66 0 1.32 0 2 0 C1.34 1.32 0.68 2.64 0 4 C-0.66 4 -1.32 4 -2 4 C-2.2475 4.886875 -2.495 5.77375 -2.75 6.6875 C-4.03934768 10.10427135 -5.59980129 12.2797748 -8 15 C-8.99 14.67 -9.98 14.34 -11 14 C-9.35504034 11.85349184 -7.70907674 9.70776711 -6.0625 7.5625 C-5.59392578 6.95083984 -5.12535156 6.33917969 -4.64257812 5.70898438 C-1.11328125 1.11328125 -1.11328125 1.11328125 0 0 Z " fill="#122C56" transform="translate(87,174)"/>
<path d="M0 0 C0.33 0.66 0.66 1.32 1 2 C-1.28880371 6.75366923 -3.39666097 10.16717598 -8 13 C-8.99 12.67 -9.98 12.34 -11 12 C-10.54109375 11.55269531 -10.0821875 11.10539063 -9.609375 10.64453125 C-6.16447701 7.25029352 -2.92744915 3.86423288 0 0 Z " fill="#0F284D" transform="translate(53,137)"/>
<path d="M0 0 C0.99 0 1.98 0 3 0 C4.38671875 1.53125 4.38671875 1.53125 5.6875 3.5 C6.12449219 4.1496875 6.56148437 4.799375 7.01171875 5.46875 C7.33785156 5.9740625 7.66398437 6.479375 8 7 C5.33333333 5.66666667 2.66666667 4.33333333 0 3 C-0.226875 3.639375 -0.45375 4.27875 -0.6875 4.9375 C-2 7 -2 7 -4.625 7.75 C-5.800625 7.87375 -5.800625 7.87375 -7 8 C-6.02133662 6.85373678 -5.04205413 5.70800212 -4.0625 4.5625 C-3.51722656 3.92441406 -2.97195312 3.28632813 -2.41015625 2.62890625 C-1.63204305 1.73008851 -0.84063472 0.84063472 0 0 Z " fill="#112D48" transform="translate(91,132)"/>
<path d="M0 0 C0.33 0.66 0.66 1.32 1 2 C-2.28157862 7.17609824 -5.45924219 11.85989729 -10 16 C-10.66 15.67 -11.32 15.34 -12 15 C-11.38511719 14.25234375 -10.77023438 13.5046875 -10.13671875 12.734375 C-8.92435547 11.25710937 -8.92435547 11.25710937 -7.6875 9.75 C-6.88699219 8.77546875 -6.08648437 7.8009375 -5.26171875 6.796875 C-3.45557742 4.5633738 -1.70180085 2.31312737 0 0 Z " fill="#6FBCA7" transform="translate(184,119)"/>
<path d="M0 0 C0.99 0.33 1.98 0.66 3 1 C3 1.99 3 2.98 3 4 C-3.27 4 -9.54 4 -16 4 C-16 3.34 -16 2.68 -16 2 C-11.05 2 -6.1 2 -1 2 C-0.67 1.34 -0.34 0.68 0 0 Z " fill="#1F495C" transform="translate(215,192)"/>
<path d="M0 0 C0.33 0.99 0.66 1.98 1 3 C-0.61849065 4.83946539 -2.24418831 6.67151417 -3.875 8.5 C-4.33519531 9.02464844 -4.79539063 9.54929688 -5.26953125 10.08984375 C-6.47172076 11.43141755 -7.73245946 12.71999185 -9 14 C-9.66 14 -10.32 14 -11 14 C-10.34 12.68 -9.68 11.36 -9 10 C-8.34 10 -7.68 10 -7 10 C-6.938125 9.21625 -6.87625 8.4325 -6.8125 7.625 C-6.544375 6.75875 -6.27625 5.8925 -6 5 C-3.5 3.875 -3.5 3.875 -1 3 C-0.67 2.01 -0.34 1.02 0 0 Z " fill="#5DB7CD" transform="translate(159,165)"/>
<path d="M0 0 C0.33 0.99 0.66 1.98 1 3 C-1.64 5.97 -4.28 8.94 -7 12 C-8.32 11.67 -9.64 11.34 -11 11 C-9.71034824 9.62437146 -8.37310707 8.29233607 -7 7 C-6.34 7 -5.68 7 -5 7 C-4.731875 6.21625 -4.46375 5.4325 -4.1875 4.625 C-3 2 -3 2 0 0 Z " fill="#4676CF" transform="translate(35,154)"/>
<path d="M0 0 C0.99 0.495 0.99 0.495 2 1 C1.34 1.66 0.68 2.32 0 3 C0 2.01 0 1.02 0 0 Z M-5 4 C-3.68 4.33 -2.36 4.66 -1 5 C-3.64 7.64 -6.28 10.28 -9 13 C-9.33 11.68 -9.66 10.36 -10 9 C-7.8125 6.1875 -7.8125 6.1875 -5 4 Z " fill="#4785CF" transform="translate(55,156)"/>
<path d="M0 0 C0.33 0.66 0.66 1.32 1 2 C0.01 3.485 0.01 3.485 -1 5 C-1.66 5 -2.32 5 -3 5 C-3.3403125 6.36125 -3.3403125 6.36125 -3.6875 7.75 C-5.18127977 11.44888324 -6.75400577 12.77905658 -10 15 C-10.66 14.67 -11.32 14.34 -12 14 C-10.5489926 12.16086305 -9.08898341 10.3288247 -7.625 8.5 C-6.81289062 7.4790625 -6.00078125 6.458125 -5.1640625 5.40625 C-4.44992188 4.6121875 -3.73578125 3.818125 -3 3 C-2.34 3 -1.68 3 -1 3 C-0.67 2.01 -0.34 1.02 0 0 Z " fill="#173850" transform="translate(80,107)"/>
<path d="M0 0 C0.66 0 1.32 0 2 0 C2.05447047 1.41623216 2.09300508 2.83308191 2.125 4.25 C2.14820313 5.03890625 2.17140625 5.8278125 2.1953125 6.640625 C1.9828378 9.20731941 1.28654105 10.7916067 0 13 C-1.7074998 11.71937515 -3.37373596 10.38232443 -5 9 C-5 8.34 -5 7.68 -5 7 C-2.525 7.99 -2.525 7.99 0 9 C0 6.03 0 3.06 0 0 Z " fill="#A1DC95" transform="translate(228,80)"/>
<path d="M0 0 C0.66 0 1.32 0 2 0 C2.375 2.0625 2.375 2.0625 2 5 C0.20822891 7.53572282 -1.84238121 9.77174488 -4 12 C-4.99 11.67 -5.98 11.34 -7 11 C-6.21625 10.113125 -5.4325 9.22625 -4.625 8.3125 C-2.42843009 5.69279481 -1.06209659 3.28284399 0 0 Z " fill="#0F221A" transform="translate(204,51)"/>
<path d="M0 0 C0.66 0.33 1.32 0.66 2 1 C1.48914188 7.43681228 0.27057103 12.95942424 -2 19 C-3.56454159 14.97985339 -2.46223974 11.30074319 -1.5625 7.25 C-1.34110352 6.20392578 -1.34110352 6.20392578 -1.11523438 5.13671875 C-0.75131967 3.4227979 -0.37670932 1.71115419 0 0 Z " fill="#253E20" transform="translate(240,23)"/>
<path d="M0 0 C0.66 0 1.32 0 2 0 C0.47987323 5.40489519 -3.27385218 8.98492628 -7 13 C-7.66 12.67 -8.32 12.34 -9 12 C-7.54927753 9.99406276 -6.09008971 7.99539826 -4.625 6 C-4.2125 5.42765625 -3.8 4.8553125 -3.375 4.265625 C-2.29828281 2.80684688 -1.15333422 1.39899024 0 0 Z " fill="#448F89" transform="translate(134,74)"/>
<path d="M0 0 C0.66 0.33 1.32 0.66 2 1 C-0.27986574 6.3576845 -2.62517344 11.68376389 -5 17 C-5.87840996 13.90279155 -5.99435406 12.09354597 -5 9 C-4.34 9 -3.68 9 -3 9 C-2.87625 8.071875 -2.7525 7.14375 -2.625 6.1875 C-2 3 -2 3 0 0 Z " fill="#0B224B" transform="translate(29,139)"/>
<path d="M0 0 C0.59554687 0.20882812 1.19109375 0.41765625 1.8046875 0.6328125 C0.55950785 1.76314548 -0.69167902 2.88686286 -1.9453125 4.0078125 C-2.64140625 4.63429687 -3.3375 5.26078125 -4.0546875 5.90625 C-6.04039938 7.50786433 -7.87485343 8.59801318 -10.1953125 9.6328125 C-8.91112397 5.13815265 -5.40284373 -0.90367849 0 0 Z " fill="#56A8C4" transform="translate(91.1953125,131.3671875)"/>
<path d="M0 0 C0.33 0.66 0.66 1.32 1 2 C-0.85579659 6.63949148 -3.34117479 9.6378363 -7 13 C-7.99 12.67 -8.98 12.34 -10 12 C-9.44570312 11.38511719 -8.89140625 10.77023438 -8.3203125 10.13671875 C-7.59585938 9.32847656 -6.87140625 8.52023438 -6.125 7.6875 C-5.40570313 6.88699219 -4.68640625 6.08648437 -3.9453125 5.26171875 C-1.88394498 2.95810917 -1.88394498 2.95810917 0 0 Z " fill="#173736" transform="translate(176,109)"/>
<path d="M0 0 C0.33 0.66 0.66 1.32 1 2 C-0.21484375 4.6015625 -0.21484375 4.6015625 -1.9375 7.625 C-2.50339844 8.62789062 -3.06929687 9.63078125 -3.65234375 10.6640625 C-4.09707031 11.43492188 -4.54179687 12.20578125 -5 13 C-6.32 12.34 -7.64 11.68 -9 11 C-6.03 7.37 -3.06 3.74 0 0 Z " fill="#87B396" transform="translate(206,93)"/>
<path d="M0 0 C-1.44424635 3.23861303 -3.25772247 5.61969163 -5.625 8.25 C-6.25664063 8.95640625 -6.88828125 9.6628125 -7.5390625 10.390625 C-8.02117187 10.92171875 -8.50328125 11.4528125 -9 12 C-9.99 11.67 -10.98 11.34 -12 11 C-11.21625 10.2575 -10.4325 9.515 -9.625 8.75 C-7.37857225 6.3965995 -6.36627232 4.83013552 -5 2 C-2 0 -2 0 0 0 Z " fill="#5298C5" transform="translate(82,141)"/>
<path d="M0 0 C0.33 0 0.66 0 1 0 C1.19392201 5.52677733 0.7479503 9.75614911 -1 15 C-1.66 15 -2.32 15 -3 15 C-3.04254356 13.00045254 -3.04080783 10.99958364 -3 9 C-2.67 8.67 -2.34 8.34 -2 8 C-1.835 6.845 -1.67 5.69 -1.5 4.5 C-1 1 -1 1 0 0 Z " fill="#B0E983" transform="translate(234,50)"/>
<path d="M0 0 C0.33 0.66 0.66 1.32 1 2 C-3.32059823 3.09845718 -7.61667943 4.17812739 -12 5 C-12 4.01 -12 3.02 -12 2 C-7.82262526 0.40861915 -4.46839215 -0.21278058 0 0 Z " fill="#ADE37D" transform="translate(210,36)"/>
<path d="M0 0 C0.66 0.99 1.32 1.98 2 3 C1.26829419 4.34345985 0.51394247 5.67460584 -0.25 7 C-0.87648438 8.11375 -0.87648438 8.11375 -1.515625 9.25 C-2.00546875 9.8275 -2.4953125 10.405 -3 11 C-4.32 11 -5.64 11 -7 11 C-5.22054913 6.95579349 -2.60470327 3.53921513 0 0 Z " fill="#3E6EBF" transform="translate(64,184)"/>
<path d="M0 0 C0.33 0.66 0.66 1.32 1 2 C-1.94610778 8.92335329 -1.94610778 8.92335329 -5 11 C-7.09765625 10.56640625 -7.09765625 10.56640625 -9 10 C-8.27683594 9.29423828 -8.27683594 9.29423828 -7.5390625 8.57421875 C-6.90742188 7.95160156 -6.27578125 7.32898438 -5.625 6.6875 C-4.68527344 5.76517578 -4.68527344 5.76517578 -3.7265625 4.82421875 C-1.81913393 2.91187472 -1.81913393 2.91187472 0 0 Z " fill="#0F2655" transform="translate(31,161)"/>
<path d="M0 0 C0.33 1.32 0.66 2.64 1 4 C-0.43359375 5.921875 -0.43359375 5.921875 -2.4375 7.75 C-3.09621094 8.36359375 -3.75492187 8.9771875 -4.43359375 9.609375 C-4.95050781 10.06828125 -5.46742187 10.5271875 -6 11 C-6.99 10.67 -7.98 10.34 -9 10 C-6.03 6.7 -3.06 3.4 0 0 Z " fill="#143143" transform="translate(90,96)"/>
<path d="M0 0 C5.61 0 11.22 0 17 0 C16.01 1.485 16.01 1.485 15 3 C14.38125 2.835 13.7625 2.67 13.125 2.5 C8.74529271 1.79924683 4.42571011 1.92265749 0 2 C0 1.34 0 0.68 0 0 Z " fill="#69BCC0" transform="translate(74,95)"/>
<path d="M0 0 C0 3.38023517 -0.87455622 5.83468937 -2 9 C-3.65 9.33 -5.3 9.66 -7 10 C-7.33 10.99 -7.66 11.98 -8 13 C-8.66 12.67 -9.32 12.34 -10 12 C-6.7 8.04 -3.4 4.08 0 0 Z " fill="#95D17F" transform="translate(206,55)"/>
<path d="M0 0 C0.33 0.99 0.66 1.98 1 3 C0.01 3.33 -0.98 3.66 -2 4 C-2.433125 5.2065625 -2.433125 5.2065625 -2.875 6.4375 C-4 9 -4 9 -6.625 10.3125 C-7.40875 10.539375 -8.1925 10.76625 -9 11 C-6.62245212 6.50907623 -3.6393937 3.47764287 0 0 Z " fill="#3D65B9" transform="translate(37,174)"/>
<path d="M0 0 C0.66 0 1.32 0 2 0 C1.41463247 3.66060821 -0.083239 5.54535164 -2.5625 8.25 C-3.20316406 8.95640625 -3.84382812 9.6628125 -4.50390625 10.390625 C-4.99761719 10.92171875 -5.49132812 11.4528125 -6 12 C-6.33 11.01 -6.66 10.02 -7 9 C-6.34 9 -5.68 9 -5 9 C-4.67 7.35 -4.34 5.7 -4 4 C-3.34 4 -2.68 4 -2 4 C-2 3.34 -2 2.68 -2 2 C-1.34 2 -0.68 2 0 2 C0 1.34 0 0.68 0 0 Z " fill="#5BAEBE" transform="translate(133,157)"/>
<path d="M0 0 C0.66 0 1.32 0 2 0 C1.40716379 3.39192363 0.23256811 5.2107757 -2.0625 7.75 C-2.61035156 8.36359375 -3.15820312 8.9771875 -3.72265625 9.609375 C-4.14417969 10.06828125 -4.56570312 10.5271875 -5 11 C-5.58203125 9.109375 -5.58203125 9.109375 -6 7 C-4.6875 5.25 -4.6875 5.25 -3 4 C-2.34 4 -1.68 4 -1 4 C-0.67 2.68 -0.34 1.36 0 0 Z " fill="#63BEC8" transform="translate(141,147)"/>
<path d="M0 0 C0.33 0.66 0.66 1.32 1 2 C-2.95825209 6.82485166 -6.59160025 10.83410746 -12 14 C-12.33 13.34 -12.66 12.68 -13 12 C-12.48050781 11.63648438 -11.96101563 11.27296875 -11.42578125 10.8984375 C-6.90269987 7.63780582 -3.37935811 4.43540752 0 0 Z " fill="#173149" transform="translate(137,118)"/>
<path d="M0 0 C1.04005702 3.38018531 1.08004482 6.4780279 1 10 C0.34 10 -0.32 10 -1 10 C-1 10.66 -1 11.32 -1 12 C-1.99 12 -2.98 12 -4 12 C-3.33501617 7.61110675 -1.81242323 4.0188515 0 0 Z " fill="#3E68C0" transform="translate(20,162)"/>
<path d="M0 0 C0 3.80345877 -1.13786331 4.77701015 -3.5 7.6875 C-4.47453125 8.89986328 -4.47453125 8.89986328 -5.46875 10.13671875 C-5.9740625 10.75160156 -6.479375 11.36648437 -7 12 C-7.640625 10.1953125 -7.640625 10.1953125 -8 8 C-5.57858445 4.63692285 -3.4528574 2.30190493 0 0 Z " fill="#7BD0B1" transform="translate(166,105)"/>
<path d="M0 0 C0.99 0.33 1.98 0.66 3 1 C0.03 4.96 0.03 4.96 -3 9 C-4.32 8.67 -5.64 8.34 -7 8 C-5.38405168 5.95880212 -3.7143618 3.95927063 -2 2 C-1.34 2 -0.68 2 0 2 C0 1.34 0 0.68 0 0 Z " fill="#83D4A1" transform="translate(182,98)"/>
<path d="M0 0 C-1.36370299 2.99220268 -2.94908083 5.29026529 -5.125 7.75 C-5.93324219 8.67039062 -5.93324219 8.67039062 -6.7578125 9.609375 C-7.16773438 10.06828125 -7.57765625 10.5271875 -8 11 C-8.33 10.01 -8.66 9.02 -9 8 C-7.63671875 5.95703125 -7.63671875 5.95703125 -5.6875 3.8125 C-5.05199219 3.09707031 -4.41648438 2.38164063 -3.76171875 1.64453125 C-2 0 -2 0 0 0 Z " fill="#A0E094" transform="translate(208,70)"/>
<path d="M0 0 C0.66 0.66 1.32 1.32 2 2 C1.401875 2.721875 0.80375 3.44375 0.1875 4.1875 C-1.77422196 6.70971395 -3.41723983 9.2301697 -5 12 C-5.99 11.67 -6.98 11.34 -8 11 C-5.36 7.37 -2.72 3.74 0 0 Z " fill="#89C896" transform="translate(140,44)"/>
<path d="M0 0 C0.33 0 0.66 0 1 0 C0.91266424 1.60517097 0.80447776 3.20921662 0.6875 4.8125 C0.62949219 5.70582031 0.57148437 6.59914062 0.51171875 7.51953125 C-0.06313581 10.30604 -0.8206856 11.24135754 -3 13 C-2.88490339 11.58249437 -2.75746342 10.16598831 -2.625 8.75 C-2.55539063 7.96109375 -2.48578125 7.1721875 -2.4140625 6.359375 C-1.98492887 3.914123 -1.21399362 2.15163097 0 0 Z " fill="#498BC0" transform="translate(37,126)"/>
<path d="M0 0 C0.99 0.33 1.98 0.66 3 1 C0.03 5.29 -2.94 9.58 -6 14 C-6.33 13.34 -6.66 12.68 -7 12 C-5.56640625 9.1796875 -5.56640625 9.1796875 -3.5625 5.875 C-2.57443359 4.23144531 -2.57443359 4.23144531 -1.56640625 2.5546875 C-1.04949219 1.71164063 -0.53257812 0.86859375 0 0 Z " fill="#76D4B2" transform="translate(132,72)"/>
<path d="M0 0 C0.99 0.33 1.98 0.66 3 1 C0.69 3.64 -1.62 6.28 -4 9 C-4.99 8.67 -5.98 8.34 -7 8 C-7 7.34 -7 6.68 -7 6 C-6.01 6 -5.02 6 -4 6 C-3.71125 5.38125 -3.4225 4.7625 -3.125 4.125 C-2 2 -2 2 0 0 Z " fill="#102C4E" transform="translate(131,180)"/>
<path d="M0 0 C0.33 0.99 0.66 1.98 1 3 C-0.21484375 4.82421875 -0.21484375 4.82421875 -1.9375 6.6875 C-2.50339844 7.31011719 -3.06929687 7.93273437 -3.65234375 8.57421875 C-4.09707031 9.04472656 -4.54179688 9.51523438 -5 10 C-5.33 8.68 -5.66 7.36 -6 6 C-5.01 5.67 -4.02 5.34 -3 5 C-2.6278958 3.67696283 -2.29369827 2.34262065 -2 1 C-1.34 0.67 -0.68 0.34 0 0 Z " fill="#416EC3" transform="translate(47,177)"/>
<path d="M0 0 C0.66 0.66 1.32 1.32 2 2 C-0.64 4.97 -3.28 7.94 -6 11 C-6.33 10.34 -6.66 9.68 -7 9 C-4.69 6.03 -2.38 3.06 0 0 Z " fill="#489DA2" transform="translate(177,146)"/>
<path d="M0 0 C0.99 0.33 1.98 0.66 3 1 C1.71451591 2.33929505 0.42141845 3.67128643 -0.875 5 C-1.59429687 5.7425 -2.31359375 6.485 -3.0546875 7.25 C-5 9 -5 9 -7 9 C-6.75881648 5.74402242 -5.47775788 4.2723696 -3.125 2.1875 C-2.09375 1.465625 -1.0625 0.74375 0 0 Z " fill="#54A1C0" transform="translate(64,122)"/>
<path d="M0 0 C1.32 0.33 2.64 0.66 4 1 C1.03 4.3 -1.94 7.6 -5 11 C-5 7.58678765 -4.33132534 6.60527115 -2.5 3.8125 C-2.0359375 3.09707031 -1.571875 2.38164063 -1.09375 1.64453125 C-0.7328125 1.10183594 -0.371875 0.55914062 0 0 Z " fill="#519090" transform="translate(155,92)"/>
<path d="M0 0 C0.33 0.99 0.66 1.98 1 3 C-0.40945366 3.56016748 -1.8280031 4.09748502 -3.25 4.625 C-4.43335938 5.07746094 -4.43335938 5.07746094 -5.640625 5.5390625 C-8 6 -8 6 -12 4 C-8.04 2.68 -4.08 1.36 0 0 Z " fill="#A3D771" transform="translate(218,31)"/>
<path d="M0 0 C0.33 0.66 0.66 1.32 1 2 C-0.37707107 5.14759102 -1.56159764 7.56159764 -4 10 C-4.99 9.67 -5.98 9.34 -7 9 C-4.69 6.03 -2.38 3.06 0 0 Z " fill="#59ADBE" transform="translate(150,160)"/>
<path d="M0 0 C0.66 0 1.32 0 2 0 C3.2890625 1.53125 3.2890625 1.53125 4.625 3.5 C5.07101563 4.1496875 5.51703125 4.799375 5.9765625 5.46875 C6.31429687 5.9740625 6.65203125 6.479375 7 7 C5.35 6.67 3.7 6.34 2 6 C2 5.34 2 4.68 2 4 C0.68 4 -0.64 4 -2 4 C-1.34 2.68 -0.68 1.36 0 0 Z " fill="#4E90B4" transform="translate(91,150)"/>
<path d="M0 0 C1.33333333 0.66666667 2.66666667 1.33333333 4 2 C4.721875 2.268125 5.44375 2.53625 6.1875 2.8125 C8 4 8 4 8.75 6.625 C8.87375 7.800625 8.87375 7.800625 9 9 C5.4781747 7.04343039 2.65557215 5.04899025 0 2 C0 1.34 0 0.68 0 0 Z " fill="#5DB5C8" transform="translate(95,133)"/>
<path d="M0 0 C0.33 0.99 0.66 1.98 1 3 C-0.14453125 4.82421875 -0.14453125 4.82421875 -1.8125 6.6875 C-2.35519531 7.31011719 -2.89789063 7.93273437 -3.45703125 8.57421875 C-5 10 -5 10 -7 10 C-5.6062718 5.56541027 -3.39417765 3.12621626 0 0 Z " fill="#0F2722" transform="translate(191,108)"/>
<path d="M0 0 C0.53625 0.37125 1.0725 0.7425 1.625 1.125 C-6.80357143 4.55357143 -6.80357143 4.55357143 -11.375 4.125 C-10.385 3.795 -9.395 3.465 -8.375 3.125 C-8.375 2.465 -8.375 1.805 -8.375 1.125 C-2.95961538 -1.09038462 -2.95961538 -1.09038462 0 0 Z " fill="#162E20" transform="translate(194.375,53.875)"/>
<path d="M0 0 C2.3125 0.8125 2.3125 0.8125 4 2 C-0.55426184 4.66590937 -3.73946963 5.31563182 -9 5 C-8.443125 4.731875 -7.88625 4.46375 -7.3125 4.1875 C-4.9025035 3.01612631 -4.9025035 3.01612631 -2.5 1.25 C-1.675 0.8375 -0.85 0.425 0 0 Z " fill="#B3EE7F" transform="translate(210,43)"/>
<path d="M0 0 C0.33 0.66 0.66 1.32 1 2 C-0.125 5.0625 -0.125 5.0625 -2 8 C-4.6875 8.875 -4.6875 8.875 -7 9 C-6.75 7.125 -6.75 7.125 -6 5 C-4.0625 3.9375 -4.0625 3.9375 -2 3 C-1.34 2.01 -0.68 1.02 0 0 Z " fill="#10214B" transform="translate(16,178)"/>
<path d="M0 0 C0.6875 1.6875 0.6875 1.6875 1 4 C-0.4375 6.75 -0.4375 6.75 -2 9 C-3.36741555 6.74778616 -4.04066478 5.47442242 -3.8125 2.8125 C-3.544375 2.214375 -3.27625 1.61625 -3 1 C-2.01 0.67 -1.02 0.34 0 0 Z " fill="#8FD5A0" transform="translate(199,104)"/>
<path d="M0 0 C0.99 0.66 1.98 1.32 3 2 C2.67 3.32 2.34 4.64 2 6 C0.68 6 -0.64 6 -2 6 C-2.66 6.66 -3.32 7.32 -4 8 C-3.40072174 4.64404172 -2.15377564 2.62198774 0 0 Z " fill="#95DF9D" transform="translate(141,46)"/>
<path d="M0 0 C2.375 -0.1875 2.375 -0.1875 5 0 C7.1519437 3.22791555 7.20086443 4.28400809 7 8 C4.35247996 5.42215154 2.05567935 3.08351902 0 0 Z " fill="#4A8DBC" transform="translate(101,178)"/>
<path d="M0 0 C0.66 0.33 1.32 0.66 2 1 C-0.64 3.97 -3.28 6.94 -6 10 C-6.33 8.68 -6.66 7.36 -7 6 C-4.69 4.02 -2.38 2.04 0 0 Z " fill="#53A2D0" transform="translate(72,137)"/>
<path d="M0 0 C0.99 0.33 1.98 0.66 3 1 C1.625 2.5 1.625 2.5 0 4 C-0.66 4 -1.32 4 -2 4 C-2.33 5.65 -2.66 7.3 -3 9 C-3.99 8.67 -4.98 8.34 -6 8 C-4.02 5.36 -2.04 2.72 0 0 Z " fill="#68B9B1" transform="translate(110,88)"/>
<path d="M0 0 C0.33 0.66 0.66 1.32 1 2 C-0.125 5.0625 -0.125 5.0625 -2 8 C-4.6875 8.875 -4.6875 8.875 -7 9 C-6.02180976 7.68677212 -5.0424189 6.37443848 -4.0625 5.0625 C-3.51722656 4.33160156 -2.97195312 3.60070312 -2.41015625 2.84765625 C-1 1 -1 1 0 0 Z " fill="#1E3823" transform="translate(213,65)"/>
<path d="M0 0 C-1.31224548 3.93673644 -2.91910327 6.22719294 -6 9 C-5.6875 5.625 -5.6875 5.625 -5 2 C-2 0 -2 0 0 0 Z " fill="#132D26" transform="translate(136,49)"/>
<path d="M0 0 C0.99 0.33 1.98 0.66 3 1 C0.35039045 4.63094642 -2.01824456 6.89851796 -6 9 C-4.47291037 5.56404834 -2.40072955 2.88087546 0 0 Z " fill="#457DD0" transform="translate(75,185)"/>
<path d="M0 0 C5.625 2.25 5.625 2.25 8 6 C7.34 7.32 6.68 8.64 6 10 C4.02 6.7 2.04 3.4 0 0 Z " fill="#5CB4BF" transform="translate(161,165)"/>
<path d="M0 0 C2.375 0.6875 2.375 0.6875 5 2 C6.1875 4.5625 6.1875 4.5625 7 7 C7.66 7.33 8.32 7.66 9 8 C6 8 6 8 4.39453125 6.50390625 C3.61142578 5.54291016 3.61142578 5.54291016 2.8125 4.5625 C2.28269531 3.92441406 1.75289063 3.28632813 1.20703125 2.62890625 C0 1 0 1 0 0 Z " fill="#5CAFC2" transform="translate(113,154)"/>
<path d="M0 0 C0.99 0 1.98 0 3 0 C3 0.66 3 1.32 3 2 C1.34151823 3.01351664 -0.32665961 4.01120795 -2 5 C-3.36984198 6.29579647 -4.7151049 7.61992749 -6 9 C-5.1875 6.0625 -5.1875 6.0625 -4 3 C-3.01 2.67 -2.02 2.34 -1 2 C-0.67 1.34 -0.34 0.68 0 0 Z " fill="#64C9CF" transform="translate(156,155)"/>
<path d="M0 0 C0.598125 0.226875 1.19625 0.45375 1.8125 0.6875 C-0.76534846 3.33502004 -3.10398098 5.63182065 -6.1875 7.6875 C-5.82037028 4.97074005 -5.46005401 3.07686287 -3.875 0.8125 C-2.1875 -0.3125 -2.1875 -0.3125 0 0 Z " fill="#0B2241" transform="translate(91.1875,149.3125)"/>
<path d="M0 0 C3.09592835 3.5087188 4.74194623 6.49197399 6 11 C5.01 11.495 5.01 11.495 4 12 C3.71125 11.030625 3.4225 10.06125 3.125 9.0625 C2.35785318 5.89335797 2.35785318 5.89335797 0 5 C0 3.35 0 1.7 0 0 Z " fill="#5CA8AC" transform="translate(231,194)"/>
<path d="M0 0 C-1.55500981 3.81684226 -4.03595495 6.19195732 -7 9 C-6.53149863 4.78348764 -4.94559315 0 0 0 Z " fill="#0F274D" transform="translate(85,157)"/>
<path d="M0 0 C0 3.77910478 -0.99703962 4.46106101 -3.5 7.1875 C-4.1496875 7.90292969 -4.799375 8.61835938 -5.46875 9.35546875 C-5.9740625 9.89816406 -6.479375 10.44085938 -7 11 C-7.66 10.67 -8.32 10.34 -9 10 C-6.03 6.7 -3.06 3.4 0 0 Z " fill="#123050" transform="translate(63,126)"/>
<path d="M0 0 C0.33 0.99 0.66 1.98 1 3 C-0.43359375 5.04296875 -0.43359375 5.04296875 -2.4375 7.1875 C-3.09621094 7.90292969 -3.75492188 8.61835937 -4.43359375 9.35546875 C-4.95050781 9.89816406 -5.46742188 10.44085938 -6 11 C-6.66 10.67 -7.32 10.34 -8 10 C-5.36 6.7 -2.72 3.4 0 0 Z " fill="#102B41" transform="translate(150,102)"/>
<path d="M0 0 C0.66 0.33 1.32 0.66 2 1 C-0.31 3.97 -2.62 6.94 -5 10 C-5.33 9.34 -5.66 8.68 -6 8 C-2.25 2.25 -2.25 2.25 0 0 Z " fill="#6CC7B9" transform="translate(123,87)"/>
<path d="M0 0 C0.33 0.66 0.66 1.32 1 2 C-3 8.57142857 -3 8.57142857 -7 10 C-4.93992341 6.39486597 -2.6486859 3.19668988 0 0 Z " fill="#183B4E" transform="translate(146,145)"/>
<path d="M0 0 C0.33 0.66 0.66 1.32 1 2 C-0.21958756 4.67371119 -1.18298261 6.75412136 -3 9 C-5.75 9.9375 -5.75 9.9375 -8 10 C-7.59007812 9.52949219 -7.18015625 9.05898437 -6.7578125 8.57421875 C-6.21898437 7.95160156 -5.68015625 7.32898438 -5.125 6.6875 C-4.59132812 6.07261719 -4.05765625 5.45773438 -3.5078125 4.82421875 C-1.8359553 2.86501788 -1.8359553 2.86501788 0 0 Z " fill="#5AA8AE" transform="translate(140,134)"/>
<path d="M0 0 C0.99 0 1.98 0 3 0 C3 2.31 3 4.62 3 7 C2.67 6.34 2.34 5.68 2 5 C0.35 5 -1.3 5 -3 5 C-1.6875 2.5 -1.6875 2.5 0 0 Z M0 2 C0 2.66 0 3.32 0 4 C0.66 3.67 1.32 3.34 2 3 C1.34 2.67 0.68 2.34 0 2 Z " fill="#11251B" transform="translate(217,60)"/>
<path d="M0 0 C0.66 0.33 1.32 0.66 2 1 C-0.97 4.96 -0.97 4.96 -4 9 C-4.33 8.01 -4.66 7.02 -5 6 C-4.34 6 -3.68 6 -3 6 C-2.87625 5.38125 -2.7525 4.7625 -2.625 4.125 C-2 2 -2 2 0 0 Z " fill="#0D2351" transform="translate(63,183)"/>
<path d="M0 0 C4.42857143 5.14285714 4.42857143 5.14285714 5 9 C4.01 8.67 3.02 8.34 2 8 C2 7.01 2 6.02 2 5 C1.01 4.67 0.02 4.34 -1 4 C-0.67 2.68 -0.34 1.36 0 0 Z " fill="#59B4C4" transform="translate(181,175)"/>
<path d="M0 0 C0 0.99 0 1.98 0 3 C-2.5 5.1875 -2.5 5.1875 -5 7 C-4.75 4.625 -4.75 4.625 -4 2 C-1.9375 0.6875 -1.9375 0.6875 0 0 Z " fill="#4889D3" transform="translate(75,174)"/>
<path d="M0 0 C1.32 0.66 2.64 1.32 4 2 C2.72403685 4.55192629 1.62843884 4.99500868 -1 6 C-1.99 5.67 -2.98 5.34 -4 5 C-2.68 3.35 -1.36 1.7 0 0 Z " fill="#163749" transform="translate(160,166)"/>
<path d="M0 0 C0.66 1.32 1.32 2.64 2 4 C1.67 4.66 1.34 5.32 1 6 C1.66 6.33 2.32 6.66 3 7 C2.01 8.485 2.01 8.485 1 10 C0.34 10 -0.32 10 -1 10 C-0.67 6.7 -0.34 3.4 0 0 Z " fill="#4072D8" transform="translate(21,160)"/>
<path d="M0 0 C1.32 0.33 2.64 0.66 4 1 C0.535 3.97 0.535 3.97 -3 7 C-2.67 5.35 -2.34 3.7 -2 2 C-1.34 2 -0.68 2 0 2 C0 1.34 0 0.68 0 0 Z " fill="#467DBD" transform="translate(60,162)"/>
<path d="M0 0 C0.66 0.33 1.32 0.66 2 1 C1.19185349 2.33597652 0.37836819 3.668725 -0.4375 5 C-0.88996094 5.7425 -1.34242187 6.485 -1.80859375 7.25 C-2.20175781 7.8275 -2.59492187 8.405 -3 9 C-3.33 9 -3.66 9 -4 9 C-4 7.35 -4 5.7 -4 4 C-3.34 4 -2.68 4 -2 4 C-1.34 2.68 -0.68 1.36 0 0 Z " fill="#132F32" transform="translate(117,74)"/>
<path d="M0 0 C0.33 0 0.66 0 1 0 C0.67 2.97 0.34 5.94 0 9 C-0.33 8.01 -0.66 7.02 -1 6 C-1.99 5.67 -2.98 5.34 -4 5 C-2.69254251 3.31295807 -1.35827971 1.64639965 0 0 Z " fill="#2A4B1E" transform="translate(222,54)"/>
<path d="M0 0 C-0.33 1.65 -0.66 3.3 -1 5 C-1.66 4.34 -2.32 3.68 -3 3 C-6.08347826 2.83318891 -6.08347826 2.83318891 -9 3 C-5.73209435 0.82139623 -3.91954654 0 0 0 Z " fill="#A6CD7D" transform="translate(240,24)"/>
<path d="M0 0 C0.33 0.66 0.66 1.32 1 2 C-1.17508418 6.69360269 -1.17508418 6.69360269 -4.1875 7.8125 C-4.785625 7.874375 -5.38375 7.93625 -6 8 C-4.26440562 4.942048 -2.61527381 2.36620011 0 0 Z " fill="#173953" transform="translate(155,173)"/>
<path d="M0 0 C-1.20381448 2.49361571 -2.45428722 4.68143083 -4 7 C-4.66 7 -5.32 7 -6 7 C-5.37162381 3.35541809 -4.14650034 0 0 0 Z " fill="#0A1E42" transform="translate(78,166)"/>
<path d="M0 0 C0.99 0 1.98 0 3 0 C1.60667426 3.36720387 0.0210714 4.9859524 -3 7 C-3.33 6.01 -3.66 5.02 -4 4 C-3.01 4 -2.02 4 -1 4 C-0.67 2.68 -0.34 1.36 0 0 Z " fill="#0F2652" transform="translate(47,159)"/>
<path d="M0 0 C0.33 0.99 0.66 1.98 1 3 C-1.3125 6.1875 -1.3125 6.1875 -4 9 C-4.66 9 -5.32 9 -6 9 C-4.47291037 5.56404834 -2.40072955 2.88087546 0 0 Z " fill="#68B7AC" transform="translate(171,135)"/>
<path d="M0 0 C0.33 0.99 0.66 1.98 1 3 C-0.98 4.98 -2.96 6.96 -5 9 C-5.66 8.67 -6.32 8.34 -7 8 C-4.69 5.36 -2.38 2.72 0 0 Z " fill="#6CB8A8" transform="translate(157,114)"/>
<path d="M0 0 C3.057952 1.73559438 5.63379989 3.38472619 8 6 C5.6875 6.25 5.6875 6.25 3 6 C1.02389614 3.95575462 0 2.8823175 0 0 Z " fill="#183421" transform="translate(219,86)"/>
<path d="M0 0 C2.64752004 2.57784846 4.94432065 4.91648098 7 8 C5.35 7.67 3.7 7.34 2 7 C1.34 4.69 0.68 2.38 0 0 Z " fill="#132E54" transform="translate(115,195)"/>
<path d="M0 0 C0.99 0.33 1.98 0.66 3 1 C1.35 2.65 -0.3 4.3 -2 6 C-2.99 5.67 -3.98 5.34 -5 5 C-3.35 3.35 -1.7 1.7 0 0 Z " fill="#56A7C3" transform="translate(147,179)"/>
<path d="M0 0 C0.66 0 1.32 0 2 0 C2 0.66 2 1.32 2 2 C2.66 2 3.32 2 4 2 C4.99 3.98 5.98 5.96 7 8 C6.34 8.66 5.68 9.32 5 10 C3.35 6.7 1.7 3.4 0 0 Z " fill="#5AADBA" transform="translate(169,177)"/>
<path d="M0 0 C0.33 0.99 0.66 1.98 1 3 C-0.40445835 5.2636564 -2.1967913 7.0208685 -4 9 C-4.33 8.01 -4.66 7.02 -5 6 C-4.34 5.01 -3.68 4.02 -3 3 C-2.34 3 -1.68 3 -1 3 C-0.67 2.01 -0.34 1.02 0 0 Z " fill="#5BAFBE" transform="translate(159,165)"/>
<path d="M0 0 C0.99 0.33 1.98 0.66 3 1 C1.35 2.98 -0.3 4.96 -2 7 C-3 4 -3 4 -2 1 C-1.34 0.67 -0.68 0.34 0 0 Z " fill="#0D2458" transform="translate(41,166)"/>
<path d="M0 0 C0 3.10551666 -0.5393715 4.35261084 -2 7 C-3.32 6.67 -4.64 6.34 -6 6 C-4.02 4.02 -2.04 2.04 0 0 Z " fill="#447AB0" transform="translate(56,153)"/>
<path d="M0 0 C0.33 0.99 0.66 1.98 1 3 C-0.28965176 4.37562854 -1.62689293 5.70766393 -3 7 C-3.66 7 -4.32 7 -5 7 C-3.75023244 3.34683329 -3.32901247 2.21934164 0 0 Z " fill="#4B80D1" transform="translate(35,154)"/>
<path d="M0 0 C0.99 0 1.98 0 3 0 C4.38671875 1.53125 4.38671875 1.53125 5.6875 3.5 C6.12449219 4.1496875 6.56148438 4.799375 7.01171875 5.46875 C7.33785156 5.9740625 7.66398437 6.479375 8 7 C4.56404834 5.47291037 1.88087546 3.40072955 -1 1 C-0.67 0.67 -0.34 0.34 0 0 Z " fill="#183C53" transform="translate(91,132)"/>
<path d="M0 0 C2.5 2.3125 2.5 2.3125 5 5 C5 5.99 5 6.98 5 8 C3.0625 7.375 3.0625 7.375 1 6 C0.25 2.875 0.25 2.875 0 0 Z " fill="#5CB0BD" transform="translate(104,127)"/>
<path d="M0 0 C0 3 0 3 -2.5 5.6875 C-3.325 6.450625 -4.15 7.21375 -5 8 C-3.375 2.25 -3.375 2.25 0 0 Z " fill="#81DCAD" transform="translate(188,117)"/>
<path d="M0 0 C0.99 0 1.98 0 3 0 C1.95125002 2.62187494 1.35068687 3.79371361 -1.125 5.25 C-1.74375 5.4975 -2.3625 5.745 -3 6 C-2.67 4.68 -2.34 3.36 -2 2 C-1.34 2 -0.68 2 0 2 C0 1.34 0 0.68 0 0 Z " fill="#83D09E" transform="translate(160,86)"/>
<path d="M0 0 C0.99 0.33 1.98 0.66 3 1 C1.68 2.65 0.36 4.3 -1 6 C-1.99 5.67 -2.98 5.34 -4 5 C-2.68 3.35 -1.36 1.7 0 0 Z " fill="#53A894" transform="translate(138,68)"/>
<path d="M0 0 C0.66 0.99 1.32 1.98 2 3 C1.01 3.99 0.02 4.98 -1 6 C-1.99 5.67 -2.98 5.34 -4 5 C-2.68 3.35 -1.36 1.7 0 0 Z " fill="#395EBE" transform="translate(15,198)"/>
<path d="M0 0 C4.875 4.75 4.875 4.75 6 7 C4.35 6.67 2.7 6.34 1 6 C0.67 4.02 0.34 2.04 0 0 Z " fill="#132E50" transform="translate(99,176)"/>
<path d="M0 0 C0.33 0.99 0.66 1.98 1 3 C0.01 4.485 0.01 4.485 -1 6 C-2.32 5.67 -3.64 5.34 -5 5 C-3.35 3.35 -1.7 1.7 0 0 Z " fill="#122A5B" transform="translate(37,155)"/>
<path d="M0 0 C-1 3 -1 3 -3.4375 4.75 C-4.7059375 5.36875 -4.7059375 5.36875 -6 6 C-6.66 5.67 -7.32 5.34 -8 5 C-3.375 0 -3.375 0 0 0 Z " fill="#4A8FB3" transform="translate(76,134)"/>
<path d="M0 0 C0.33 0.66 0.66 1.32 1 2 C-0.98 4.97 -0.98 4.97 -3 8 C-3.99 7.67 -4.98 7.34 -6 7 C-4.02 4.69 -2.04 2.38 0 0 Z " fill="#6EB39A" transform="translate(184,119)"/>
<path d="M0 0 C0.99 0.33 1.98 0.66 3 1 C-0.465 3.97 -0.465 3.97 -4 7 C-3.67 5.68 -3.34 4.36 -3 3 C-2.34 3 -1.68 3 -1 3 C-0.67 2.01 -0.34 1.02 0 0 Z " fill="#12314B" transform="translate(82,121)"/>
<path d="M0 0 C0.33 0.99 0.66 1.98 1 3 C0.01 3.33 -0.98 3.66 -2 4 C-2 4.66 -2 5.32 -2 6 C-2.99 6 -3.98 6 -5 6 C-5 5.34 -5 4.68 -5 4 C-3.37373596 2.61767557 -1.7074998 1.28062485 0 0 Z " fill="#6ED2B9" transform="translate(155,119)"/>
<path d="M0 0 C0.33 0 0.66 0 1 0 C1.36923077 4.55384615 1.36923077 4.55384615 -0.5 6.8125 C-0.995 7.204375 -1.49 7.59625 -2 8 C-2.33 7.01 -2.66 6.02 -3 5 C-1.625 2.3125 -1.625 2.3125 0 0 Z " fill="#142C27" transform="translate(205,97)"/>
<path d="M0 0 C0 0.99 0 1.98 0 3 C-2.5 5.1875 -2.5 5.1875 -5 7 C-4.1875 4.0625 -4.1875 4.0625 -3 1 C-2.01 0.67 -1.02 0.34 0 0 Z " fill="#8CDCA2" transform="translate(179,90)"/>
<path d="M0 0 C0.66 0.66 1.32 1.32 2 2 C1.75 4.5625 1.75 4.5625 1 7 C0.01 7.495 0.01 7.495 -1 8 C-1.125 2.25 -1.125 2.25 0 0 Z " fill="#B3F082" transform="translate(224,54)"/>
<path d="M0 0 C2.56687367 3.8503105 1.83288724 5.58569763 1 10 C0.34 9.67 -0.32 9.34 -1 9 C-0.67 6.03 -0.34 3.06 0 0 Z " fill="#B9EA7D" transform="translate(237,26)"/>
</svg>
